<?xml version="1.0" standalone="no"?>
<!DOCTYPE svg PUBLIC "-//W3C//DTD SVG 20010904//EN"
 "http://www.w3.org/TR/2001/REC-SVG-20010904/DTD/svg10.dtd">
<svg version="1.0" xmlns="http://www.w3.org/2000/svg"
 width="1280.000000pt" height="502.000000pt" viewBox="0 0 1280.000000 502.000000"
 preserveAspectRatio="xMidYMid meet">

<g transform="translate(0.000000,502.000000) scale(0.100000,-0.100000)"
fill="#000000" stroke="none">
<path d="M1710 4225 c-80 -20 -139 -47 -190 -90 -59 -49 -125 -128 -155 -186
-55 -106 -105 -143 -278 -203 -144 -50 -202 -83 -276 -159 -63 -65 -93 -109
-137 -200 -55 -118 -68 -184 -61 -322 7 -127 29 -233 70 -331 44 -105 51 -168
52 -469 l0 -281 37 -75 c75 -151 216 -250 414 -289 136 -27 209 -66 291 -154
36 -39 80 -93 98 -121 36 -56 125 -247 125 -268 0 -22 54 -100 95 -136 62 -54
139 -84 215 -85 58 -1 71 3 119 33 64 41 123 113 146 178 40 109 66 156 117
206 98 97 231 150 427 172 227 26 343 70 455 176 206 192 278 435 209 700 -24
91 -28 123 -28 254 0 175 15 261 77 435 59 170 68 207 68 286 0 82 -11 122
-52 181 -54 80 -148 127 -284 142 -175 19 -281 104 -354 282 -38 94 -71 140
-123 170 -39 22 -50 24 -162 21 -66 -2 -165 -4 -220 -5 -109 -1 -104 -3 -265
86 -112 61 -299 84 -430 52z m642 -296 c248 -49 449 -158 634 -343 245 -246
364 -533 364 -882 0 -631 -453 -1145 -1089 -1235 -176 -25 -429 5 -599 71
-412 160 -711 523 -787 957 -20 111 -19 318 0 424 46 248 158 469 326 643 94
99 155 147 268 215 264 159 574 212 883 150z"/>
<path d="M2040 3903 c-300 -22 -549 -130 -760 -330 -181 -172 -307 -404 -355
-654 -17 -93 -20 -302 -5 -399 28 -173 120 -390 223 -525 l54 -70 64 3 c35 2
75 9 89 16 51 24 52 35 62 806 5 393 11 733 14 755 6 55 18 71 42 59 11 -5 97
-92 193 -194 96 -102 302 -315 459 -475 157 -159 348 -355 425 -435 76 -80
142 -146 147 -148 4 -2 8 11 7 30 0 18 -6 260 -13 538 -14 542 -16 563 -68
591 -12 7 -54 15 -93 18 -53 5 -70 10 -70 21 0 13 38 16 259 20 l260 5 -70 63
c-204 186 -456 289 -744 305 -41 2 -95 2 -120 0z"/>
<path d="M2925 3481 c-40 -17 -56 -48 -65 -123 -5 -40 -14 -387 -20 -771 -6
-384 -14 -705 -17 -713 -11 -30 -47 -10 -146 80 -141 130 -761 758 -952 966
-87 94 -159 169 -160 168 -2 -2 3 -230 10 -508 15 -552 20 -593 72 -628 16
-10 55 -19 92 -22 52 -4 66 -9 69 -22 3 -17 -15 -18 -270 -19 -150 -1 -279 -1
-286 0 -27 4 -9 -21 60 -80 180 -155 385 -251 608 -284 177 -27 372 -14 536
36 178 54 397 189 518 320 133 143 243 342 293 529 26 99 28 117 27 300 0 181
-2 202 -28 295 -45 166 -114 305 -214 438 -31 41 -41 47 -72 46 -19 0 -44 -4
-55 -8z"/>
<path d="M9435 3314 c-11 -2 -45 -9 -75 -15 -30 -6 -93 -29 -140 -51 -115 -55
-237 -175 -297 -293 -141 -276 -147 -573 -16 -764 46 -67 147 -143 228 -172
83 -29 253 -37 355 -15 285 61 501 305 560 633 20 109 9 271 -24 357 -63 165
-198 278 -373 312 -70 13 -172 17 -218 8z m203 -248 c50 -25 101 -75 126 -124
42 -82 44 -223 4 -351 -51 -167 -141 -287 -257 -344 -58 -28 -75 -32 -151 -32
-98 0 -140 17 -202 82 -62 64 -82 122 -82 238 1 263 162 514 356 555 65 14
152 4 206 -24z"/>
<path d="M7835 3278 c-3 -12 -61 -291 -129 -619 -69 -328 -128 -608 -132 -622
l-6 -27 134 0 134 0 28 138 c16 75 41 193 56 262 l26 125 80 3 c43 2 94 0 112
-3 52 -10 106 -66 150 -158 42 -87 126 -294 137 -340 l7 -27 144 0 c79 0 144
2 144 4 0 2 -22 57 -50 120 -74 174 -156 328 -200 378 l-38 44 61 13 c140 29
241 104 295 219 24 51 27 68 27 172 0 105 -2 119 -27 165 -40 77 -92 122 -167
147 -61 20 -91 22 -423 26 l-357 4 -6 -24z m636 -208 c84 -23 110 -102 64
-195 -52 -107 -130 -135 -382 -135 -90 0 -163 2 -163 5 0 5 56 273 65 313 5
22 7 22 193 22 103 0 203 -5 223 -10z"/>
<path d="M10562 3268 c-17 -29 -43 -74 -132 -233 -111 -197 -547 -967 -562
-992 l-20 -33 139 0 138 1 76 140 75 141 255 -1 254 0 18 -108 c9 -60 20 -123
23 -140 l5 -33 124 0 c69 0 125 3 125 6 0 10 -200 1238 -205 1262 -5 22 -8 22
-149 22 l-144 0 -20 -32z m154 -490 c18 -128 34 -241 34 -250 0 -17 -16 -18
-190 -18 l-189 0 152 254 c84 140 154 252 155 251 2 -2 19 -108 38 -237z"/>
<path d="M11385 3289 c-2 -8 -41 -187 -85 -399 -45 -212 -103 -490 -130 -619
-28 -128 -50 -240 -50 -247 0 -12 45 -14 263 -14 383 0 491 17 623 96 144 86
261 258 310 454 22 91 25 288 5 370 -43 175 -145 291 -301 342 -58 18 -96 21
-347 26 -234 4 -284 2 -288 -9z m576 -244 c24 -17 55 -53 72 -84 27 -48 31
-65 35 -156 7 -167 -18 -270 -100 -402 -47 -75 -94 -118 -166 -151 -49 -22
-72 -25 -213 -30 -132 -4 -159 -2 -159 9 0 8 39 202 87 432 l87 419 157 -4
c156 -3 158 -3 200 -33z"/>
<path d="M4744 3222 c-99 -60 -94 -51 -94 -173 l0 -109 -55 0 -55 0 0 -65 0
-65 55 0 55 0 0 -282 c1 -321 9 -418 37 -457 48 -65 122 -88 240 -75 l65 7 -7
55 c-10 82 -11 82 -70 82 -37 0 -60 6 -76 19 l-24 19 -3 316 -3 316 80 0 81 0
0 65 0 65 -80 0 -80 0 -2 159 -3 159 -61 -36z"/>
<path d="M6748 2963 c4 -10 110 -222 235 -471 l228 -454 -21 -81 c-30 -121
-75 -155 -185 -142 -30 4 -55 4 -55 1 0 -4 7 -36 16 -72 19 -76 31 -84 123
-84 115 0 178 58 225 205 24 75 276 1086 276 1106 0 6 -33 9 -77 7 l-78 -3
-57 -235 c-32 -129 -71 -298 -87 -375 -20 -97 -31 -134 -36 -120 -20 52 -92
209 -185 400 -56 116 -115 238 -131 273 l-28 62 -85 0 c-77 0 -85 -2 -78 -17z"/>
<path d="M3935 2953 c-92 -12 -207 -72 -259 -134 -39 -46 -83 -142 -96 -208
-13 -69 -13 -213 0 -281 22 -115 89 -220 174 -275 218 -138 523 -67 632 148
73 144 72 402 -4 540 -83 153 -258 235 -447 210z m177 -150 c53 -21 121 -100
141 -163 38 -118 30 -285 -17 -378 -50 -98 -128 -145 -236 -145 -79 0 -129 23
-187 85 -61 67 -78 128 -77 273 0 98 4 130 22 175 59 149 205 212 354 153z"/>
<path d="M5403 2950 c-145 -27 -241 -96 -282 -203 -11 -32 -21 -62 -21 -66 0
-9 23 -14 110 -26 l45 -6 18 49 c25 73 69 107 155 122 51 8 85 9 127 1 112
-21 157 -66 163 -164 l4 -63 -73 -17 c-41 -9 -138 -26 -216 -37 -160 -23 -213
-42 -273 -96 -64 -58 -85 -105 -85 -194 0 -87 22 -137 80 -188 51 -45 84 -60
164 -73 121 -20 252 12 358 87 48 34 63 35 63 5 0 -10 5 -32 11 -50 l11 -31
77 0 c43 0 80 3 83 6 4 3 -3 27 -15 52 -20 44 -21 69 -27 377 -5 321 -6 331
-29 378 -44 90 -139 135 -300 142 -53 2 -119 0 -148 -5z m314 -569 c-8 -130
-45 -190 -147 -242 -66 -33 -181 -38 -243 -11 -54 24 -78 57 -84 115 -5 54 21
105 69 129 20 10 105 32 189 47 85 16 165 34 179 39 14 6 29 11 34 11 5 1 6
-38 3 -88z"/>
<path d="M6405 2946 c-39 -15 -109 -83 -121 -118 -10 -33 -20 -18 -18 28 3 81
1 84 -77 84 l-69 0 2 -467 3 -468 77 -3 76 -3 4 308 c5 347 11 383 73 443 30
29 43 34 93 38 42 3 68 -1 91 -13 18 -9 34 -15 35 -13 6 7 56 142 53 144 -1 1
-20 11 -43 22 -56 29 -129 36 -179 18z"/>
</g>
</svg>
