<svg width="1280" height="502" viewBox="0 0 1280 502" fill="none" xmlns="http://www.w3.org/2000/svg">
<path d="M866.056 284.896C868.43 290.598 870.683 295.939 873.113 301.7C863.385 301.7 854.169 301.7 844.995 301.7C840.468 290.678 835.941 279.652 831.408 268.629C831.029 267.707 830.58 266.814 830.208 265.89C825.323 253.776 817.192 246.839 803.318 248.782C801.038 249.101 798.675 248.827 795.762 248.827C792.026 266.529 788.31 284.138 784.585 301.789C775.662 301.789 767.038 301.789 758.025 301.789C767.034 258.793 775.988 216.059 784.856 173.732C807.393 173.732 829.377 173.436 851.35 173.808C878.05 174.259 886.214 194.878 882.527 215.745C879.506 232.844 867.948 241.932 851.739 245.917C849.527 246.461 847.276 246.852 844.464 247.434C854.534 258.41 859.99 271.61 866.056 284.896ZM802.775 229.247C812.082 229.111 821.4 229.202 830.694 228.775C839.942 228.35 848.467 225.98 853.868 217.459C859.295 208.897 858.682 195.385 842.71 195.122C830.922 194.929 819.128 195.084 806.948 195.084C804.669 205.917 802.366 216.754 800.192 227.616C800.108 228.033 801.266 228.698 802.775 229.247Z" fill="#040404"/>
<path d="M1128.35 226.28C1132.11 208.476 1135.78 191.085 1139.53 173.228C1151.93 173.228 1164.22 173.165 1176.51 173.257C1182 173.299 1187.52 173.41 1192.98 173.909C1211.95 175.644 1224.84 185.55 1231.13 203.519C1241.03 231.747 1231.74 266.992 1209.49 286.8C1200.62 294.698 1190.08 299.756 1178.49 300.464C1156.76 301.79 1134.95 301.75 1112.51 302.295C1117.89 276.423 1123.07 251.558 1128.35 226.28ZM1202.95 253.325C1208.24 241.573 1209.09 229.178 1207.58 216.647C1206.44 207.2 1202.23 198.471 1192.44 196.394C1182.38 194.262 1171.76 194.788 1161.53 194.159C1155.37 223.787 1149.46 252.185 1143.53 280.657C1152.26 280.657 1160.4 280.815 1168.54 280.621C1181.68 280.308 1191.1 273.62 1197.86 262.759C1199.61 259.944 1201.07 256.946 1202.95 253.325Z" fill="#050505"/>
<path d="M1004.17 204.899C1016.06 244.51 992.728 290.25 955.059 301.374C941.175 305.474 926.979 305.916 913.368 300.653C894.25 293.261 883.948 278.177 882.552 258.318C880.568 230.082 888.518 204.687 910.852 185.925C928.482 171.114 949.394 167.691 971.428 173.568C987.61 177.884 998.346 188.752 1004.17 204.899ZM909.032 239.791C909.156 246.722 908.034 253.956 909.635 260.527C914.557 280.725 937.092 288.325 955.562 276.641C973.713 265.159 985.271 234.295 979.16 213.623C975.07 199.788 962.485 191.763 948.195 193.428C936.038 194.845 927.256 201.249 920.573 211.024C914.782 219.496 910.941 228.804 909.032 239.791Z" fill="#040404"/>
<path d="M1010.51 302C1002.4 302.013 994.752 302.013 986.698 302.013C987.075 300.833 987.213 299.871 987.658 299.083C1010.65 258.422 1033.71 217.795 1056.62 177.087C1058.22 174.253 1059.8 173.031 1063.15 173.146C1071.3 173.424 1079.46 173.236 1088.26 173.236C1095.22 216.022 1102.17 258.757 1109.16 301.775C1100.63 301.775 1092.52 301.775 1084.05 301.775C1082.61 292.596 1081.18 283.445 1079.69 273.941C1078.36 273.813 1077.1 273.589 1075.84 273.587C1061.52 273.554 1047.2 273.661 1032.88 273.466C1029.75 273.424 1028.15 274.475 1026.77 277.175C1022.98 284.563 1018.97 291.848 1014.83 299.046C1014.09 300.34 1012.27 301.022 1010.51 302ZM1072.1 222.353C1071.12 215.448 1070.13 208.542 1068.99 200.497C1058.36 218.227 1048.42 234.795 1038.07 252.052C1045.19 252.052 1051.3 252.052 1057.42 252.052C1063.65 252.052 1069.88 252.052 1076.45 252.052C1074.97 241.965 1073.6 232.596 1072.1 222.353Z" fill="#050505"/>
<path d="M562.822 246.015C563.576 245.907 563.939 245.927 564.229 245.792C567.149 244.425 572.231 243.431 572.572 241.574C573.716 235.346 573.294 228.363 566.979 224.653C556.825 218.688 545.687 218.287 535.544 223.911C531.142 226.352 528.698 232.322 524.495 237.829C521.318 237.394 516.304 236.707 510.94 235.972C513.234 223.909 519.122 215.198 530.701 210.968C542.935 206.499 555.454 205.957 568.059 208.862C582.261 212.134 588.629 220.056 588.878 234.679C589.112 248.341 588.987 262.008 589.098 275.673C589.171 284.645 589.234 293.64 593.973 302.645C588.596 302.645 583.856 302.768 579.134 302.541C578.182 302.495 576.843 301.29 576.465 300.317C575.456 297.716 574.873 294.95 573.939 291.595C572.331 292.805 570.959 293.843 569.58 294.873C557.67 303.764 544.294 306.456 529.87 303.748C517.553 301.435 509.378 292.535 508.172 280.836C506.937 268.853 513.294 257.536 525.296 253.317C533.351 250.485 542.123 249.678 550.589 248.045C554.506 247.289 558.46 246.724 562.822 246.015ZM531.606 265.925C526.076 270.089 523.954 275.258 525.434 280.958C526.954 286.811 532.067 290.984 538.847 291.904C561.461 294.971 576.554 278.973 572.439 256.618C565.825 258.08 559.201 259.536 552.582 261.011C545.809 262.519 539.041 264.046 531.606 265.925Z" fill="#070707"/>
<path d="M414.138 208.838C432.438 214.474 443.525 228.365 444.762 247.972C445.24 255.544 444.916 263.338 443.664 270.814C439.975 292.851 419.555 307.253 396.786 304.513C374.047 301.777 359.682 287.106 358.221 264.14C357.709 256.088 357.92 247.716 359.555 239.856C363.921 218.871 381.854 205.91 403.395 207.246C406.86 207.46 410.291 208.239 414.138 208.838ZM424.352 277.658C429.776 265.812 430.193 253.499 427.006 241.127C423.655 228.122 413.481 220.243 401.157 220.32C388.877 220.397 378.958 228.514 375.685 241.63C373.188 251.64 373.13 261.795 376.111 271.712C379.387 282.614 386.324 289.857 398.107 291.295C409.54 292.69 418.119 288.12 424.352 277.658Z" fill="#060606"/>
<path d="M700.39 222.549C709.454 241.549 718.336 260.218 727.185 278.816C732.904 254.395 738.606 230.05 744.356 205.494C749.734 205.494 754.807 205.494 760.388 205.494C757.258 218.131 754.198 230.528 751.117 242.92C745.417 265.84 739.811 288.785 733.917 311.655C732.602 316.76 730.69 321.818 728.307 326.519C722.233 338.496 710.31 338.533 701.203 335.893C700.241 335.614 699.258 334.208 698.937 333.13C697.798 329.314 696.942 325.414 695.751 320.629C698.371 321.042 700.53 321.447 702.706 321.712C711.544 322.786 716.35 319.223 719.203 310.912C721.784 303.391 721.179 297.034 717.369 289.762C703.559 263.403 690.548 236.625 677.245 210.001C676.585 208.682 676.013 207.319 675.057 205.226C680.419 205.226 685.303 205.073 690.163 205.345C691.24 205.405 692.619 206.765 693.2 207.872C695.671 212.583 697.894 217.424 700.39 222.549Z" fill="#070707"/>
<path d="M482.197 246C482.195 256.488 482.182 266.476 482.195 276.464C482.21 287.429 484.325 289.444 495.063 288.788C495.884 288.738 496.704 288.682 498.08 288.593C498.835 293.159 499.575 297.634 500.449 302.919C493.11 302.919 486.292 303.662 479.712 302.727C471.796 301.603 467.291 295.79 467.042 287.123C466.55 269.992 466.531 252.846 466.341 235.706C466.292 231.247 466.334 226.786 466.334 221.811C462.437 221.811 458.874 221.811 455.104 221.811C455.104 217.512 455.104 213.729 455.104 209.434C458.644 209.434 462.201 209.434 466.315 209.434C466.315 202.673 466.478 196.407 466.243 190.157C466.133 187.235 467.182 185.61 469.668 184.271C473.718 182.091 477.599 179.596 482.116 176.897C482.116 187.838 482.116 198.214 482.116 208.998C487.432 208.998 492.344 208.998 497.672 208.998C497.672 213.289 497.672 217.178 497.672 221.624C492.834 221.624 487.775 221.624 482.197 221.624C482.197 229.936 482.197 237.718 482.197 246Z" fill="#080808"/>
<path d="M636.164 228.133C629.896 235.122 629.381 243.561 629.191 251.83C628.844 266.982 629.079 282.148 629.071 297.308C629.07 298.932 629.071 300.556 629.071 302.428C623.689 302.428 618.759 302.428 613.468 302.428C613.468 271.492 613.468 240.631 613.468 209.512C617.966 209.512 622.404 209.512 627.463 209.512C627.463 213.291 627.463 217.157 627.463 221.024C632.698 214.801 636.997 208.176 645.744 207.32C652.337 206.675 658.111 208.983 663.962 212.302C662.113 217.23 660.333 221.975 658.497 226.869C650.757 223.323 643.359 221.537 636.164 228.133Z" fill="#080808"/>
<path d="M1072.16 222.79C1073.6 232.596 1074.97 241.965 1076.45 252.052C1069.88 252.052 1063.65 252.052 1057.42 252.052C1051.3 252.052 1045.19 252.052 1038.07 252.052C1048.42 234.795 1058.36 218.227 1068.99 200.497C1070.13 208.542 1071.12 215.448 1072.16 222.79Z" fill="#FAFAFA"/>
<path d="M531.938 265.745C539.041 264.046 545.809 262.519 552.582 261.011C559.201 259.536 565.825 258.08 572.439 256.618C576.554 278.973 561.461 294.971 538.847 291.904C532.067 290.984 526.954 286.811 525.434 280.958C523.954 275.258 526.076 270.089 531.938 265.745Z" fill="#FAFAFA"/>
<path d="M866.056 284.896C868.43 290.598 870.683 295.939 873.113 301.7C863.385 301.7 854.169 301.7 844.995 301.7C840.468 290.678 835.941 279.652 831.408 268.629C831.029 267.707 830.58 266.814 830.208 265.89C825.323 253.776 817.192 246.839 803.318 248.782C801.038 249.101 798.675 248.827 795.762 248.827C792.026 266.529 788.31 284.138 784.585 301.789C775.662 301.789 767.038 301.789 758.025 301.789C767.034 258.793 775.988 216.059 784.856 173.732C807.393 173.732 829.377 173.436 851.35 173.808C878.05 174.259 886.214 194.878 882.527 215.745C879.506 232.844 867.948 241.932 851.739 245.917C849.527 246.461 847.276 246.852 844.464 247.434C854.534 258.41 859.99 271.61 866.056 284.896ZM802.775 229.247C812.082 229.111 821.4 229.202 830.694 228.775C839.942 228.35 848.467 225.98 853.868 217.459C859.295 208.897 858.682 195.385 842.71 195.122C830.922 194.929 819.128 195.084 806.948 195.084C804.669 205.917 802.366 216.754 800.192 227.616C800.108 228.033 801.266 228.698 802.775 229.247Z" fill="#040404"/>
<path d="M1128.35 226.28C1132.11 208.476 1135.78 191.085 1139.53 173.228C1151.93 173.228 1164.22 173.165 1176.51 173.257C1182 173.299 1187.52 173.41 1192.98 173.909C1211.95 175.644 1224.84 185.55 1231.13 203.519C1241.03 231.747 1231.74 266.992 1209.49 286.8C1200.62 294.698 1190.08 299.756 1178.49 300.464C1156.76 301.79 1134.95 301.75 1112.51 302.295C1117.89 276.423 1123.07 251.558 1128.35 226.28ZM1202.95 253.325C1208.24 241.573 1209.09 229.178 1207.58 216.647C1206.44 207.2 1202.23 198.471 1192.44 196.394C1182.38 194.262 1171.76 194.788 1161.53 194.159C1155.37 223.787 1149.46 252.185 1143.53 280.657C1152.26 280.657 1160.4 280.815 1168.54 280.621C1181.68 280.308 1191.1 273.62 1197.86 262.759C1199.61 259.944 1201.07 256.946 1202.95 253.325Z" fill="#050505"/>
<path d="M1004.17 204.899C1016.06 244.51 992.728 290.25 955.059 301.374C941.175 305.474 926.979 305.916 913.368 300.653C894.25 293.261 883.948 278.177 882.552 258.318C880.568 230.082 888.518 204.687 910.852 185.925C928.482 171.114 949.394 167.691 971.428 173.568C987.61 177.884 998.346 188.752 1004.17 204.899ZM909.032 239.791C909.156 246.722 908.034 253.956 909.635 260.527C914.557 280.725 937.092 288.325 955.562 276.641C973.713 265.159 985.271 234.295 979.16 213.623C975.07 199.788 962.485 191.763 948.195 193.428C936.038 194.845 927.256 201.249 920.573 211.024C914.782 219.496 910.941 228.804 909.032 239.791Z" fill="#040404"/>
<path d="M1010.51 302C1002.4 302.013 994.752 302.013 986.698 302.013C987.075 300.833 987.213 299.871 987.658 299.083C1010.65 258.422 1033.71 217.795 1056.62 177.087C1058.22 174.253 1059.8 173.031 1063.15 173.146C1071.3 173.424 1079.46 173.236 1088.26 173.236C1095.22 216.022 1102.17 258.757 1109.16 301.775C1100.63 301.775 1092.52 301.775 1084.05 301.775C1082.61 292.596 1081.18 283.445 1079.69 273.941C1078.36 273.813 1077.1 273.589 1075.84 273.587C1061.52 273.554 1047.2 273.661 1032.88 273.466C1029.75 273.424 1028.15 274.475 1026.77 277.175C1022.98 284.563 1018.97 291.848 1014.83 299.046C1014.09 300.34 1012.27 301.022 1010.51 302ZM1072.1 222.353C1071.12 215.448 1070.13 208.542 1068.99 200.497C1058.36 218.227 1048.42 234.795 1038.07 252.052C1045.19 252.052 1051.3 252.052 1057.42 252.052C1063.65 252.052 1069.88 252.052 1076.45 252.052C1074.97 241.965 1073.6 232.596 1072.1 222.353Z" fill="#050505"/>
<path d="M562.822 246.015C563.576 245.907 563.939 245.927 564.229 245.792C567.149 244.425 572.231 243.431 572.572 241.574C573.716 235.346 573.294 228.363 566.979 224.653C556.825 218.688 545.687 218.287 535.544 223.911C531.142 226.352 528.698 232.322 524.495 237.829C521.318 237.394 516.304 236.707 510.94 235.972C513.234 223.909 519.122 215.198 530.701 210.968C542.935 206.499 555.454 205.957 568.059 208.862C582.261 212.134 588.629 220.056 588.878 234.679C589.112 248.341 588.987 262.008 589.098 275.673C589.171 284.645 589.234 293.64 593.973 302.645C588.596 302.645 583.856 302.768 579.134 302.541C578.182 302.495 576.843 301.29 576.465 300.317C575.456 297.716 574.873 294.95 573.939 291.595C572.331 292.805 570.959 293.843 569.58 294.873C557.67 303.764 544.294 306.456 529.87 303.748C517.553 301.435 509.378 292.535 508.172 280.836C506.937 268.853 513.294 257.536 525.296 253.317C533.351 250.485 542.123 249.678 550.589 248.045C554.506 247.289 558.46 246.724 562.822 246.015ZM531.606 265.925C526.076 270.089 523.954 275.258 525.434 280.958C526.954 286.811 532.067 290.984 538.847 291.904C561.461 294.971 576.554 278.973 572.439 256.618C565.825 258.08 559.201 259.536 552.582 261.011C545.809 262.519 539.041 264.046 531.606 265.925Z" fill="#070707"/>
<path d="M414.138 208.838C432.438 214.474 443.525 228.365 444.762 247.972C445.24 255.544 444.916 263.338 443.664 270.814C439.975 292.851 419.555 307.253 396.786 304.513C374.047 301.777 359.682 287.106 358.221 264.14C357.709 256.088 357.92 247.716 359.555 239.856C363.921 218.871 381.854 205.91 403.395 207.246C406.86 207.46 410.291 208.239 414.138 208.838ZM424.352 277.658C429.776 265.812 430.193 253.499 427.006 241.127C423.655 228.122 413.481 220.243 401.157 220.32C388.877 220.397 378.958 228.514 375.685 241.63C373.188 251.64 373.13 261.795 376.111 271.712C379.387 282.614 386.324 289.857 398.107 291.295C409.54 292.69 418.119 288.12 424.352 277.658Z" fill="#060606"/>
<path d="M700.39 222.549C709.454 241.549 718.336 260.218 727.185 278.816C732.904 254.395 738.606 230.05 744.356 205.494C749.734 205.494 754.807 205.494 760.388 205.494C757.258 218.131 754.198 230.528 751.117 242.92C745.417 265.84 739.811 288.785 733.917 311.655C732.602 316.76 730.69 321.818 728.307 326.519C722.233 338.496 710.31 338.533 701.203 335.893C700.241 335.614 699.258 334.208 698.937 333.13C697.798 329.314 696.942 325.414 695.751 320.629C698.371 321.042 700.53 321.447 702.706 321.712C711.544 322.786 716.35 319.223 719.203 310.912C721.784 303.391 721.179 297.034 717.369 289.762C703.559 263.403 690.548 236.625 677.245 210.001C676.585 208.682 676.013 207.319 675.057 205.226C680.419 205.226 685.303 205.073 690.163 205.345C691.24 205.405 692.619 206.765 693.2 207.872C695.671 212.583 697.894 217.424 700.39 222.549Z" fill="#070707"/>
<path d="M482.197 246C482.195 256.488 482.182 266.476 482.195 276.464C482.21 287.429 484.325 289.444 495.063 288.788C495.884 288.738 496.704 288.682 498.08 288.593C498.835 293.159 499.575 297.634 500.449 302.919C493.11 302.919 486.292 303.662 479.712 302.727C471.796 301.603 467.291 295.79 467.042 287.123C466.55 269.992 466.531 252.846 466.341 235.706C466.292 231.247 466.334 226.786 466.334 221.811C462.437 221.811 458.874 221.811 455.104 221.811C455.104 217.512 455.104 213.729 455.104 209.434C458.644 209.434 462.201 209.434 466.315 209.434C466.315 202.673 466.478 196.407 466.243 190.157C466.133 187.235 467.182 185.61 469.668 184.271C473.718 182.091 477.599 179.596 482.116 176.897C482.116 187.838 482.116 198.214 482.116 208.998C487.432 208.998 492.344 208.998 497.672 208.998C497.672 213.289 497.672 217.178 497.672 221.624C492.834 221.624 487.775 221.624 482.197 221.624C482.197 229.936 482.197 237.718 482.197 246Z" fill="#080808"/>
<path d="M636.164 228.133C629.896 235.122 629.381 243.561 629.191 251.83C628.844 266.982 629.079 282.148 629.071 297.308C629.07 298.932 629.071 300.556 629.071 302.428C623.689 302.428 618.759 302.428 613.468 302.428C613.468 271.492 613.468 240.631 613.468 209.512C617.966 209.512 622.404 209.512 627.463 209.512C627.463 213.291 627.463 217.157 627.463 221.024C632.698 214.801 636.997 208.176 645.744 207.32C652.337 206.675 658.111 208.983 663.962 212.302C662.113 217.23 660.333 221.975 658.497 226.869C650.757 223.323 643.359 221.537 636.164 228.133Z" fill="#080808"/>
<path d="M137.788 326.692C138.374 326.772 139.118 327.099 139.882 327.787C139.25 327.745 138.599 327.342 137.788 326.692Z" fill="#7D1D1E"/>
<path d="M139.986 328.374C140.438 328.334 141.013 328.556 141.612 329.108C141.126 329.171 140.618 328.904 139.986 328.374Z" fill="#7D1D1E"/>
<path d="M136.097 325.255C136.534 325.257 137.081 325.525 137.633 326.118C137.161 326.136 136.683 325.829 136.097 325.255Z" fill="#7D1D1E"/>
<path d="M141.764 329.65C141.985 329.521 142.345 329.629 142.797 330.019C142.561 330.164 142.232 330.024 141.764 329.65Z" fill="#7D1D1E"/>
<path d="M132.811 322.493C133.041 322.387 133.372 322.531 133.779 322.95C133.54 323.063 133.226 322.903 132.811 322.493Z" fill="#7D1D1E"/>
<path d="M133.882 323.412C134.103 323.311 134.422 323.469 134.846 323.882C134.627 323.982 134.303 323.827 133.882 323.412Z" fill="#7D1D1E"/>
<path d="M294.001 150.739C293.689 150.904 293.431 150.746 293.121 150.293C293.174 150.03 293.336 149.972 293.746 149.983C293.994 150.054 293.998 150.511 294.001 150.739Z" fill="#FAE4E2"/>
<path d="M252.586 149.955C253.515 151.143 254.042 152.228 254.777 153.565C252.086 153.688 249.188 153.56 246.291 153.432C246.21 152.67 246.129 151.909 246.048 151.148C248.093 150.717 250.139 150.285 252.586 149.955Z" fill="#FAE4E2"/>
<path d="M191.274 191.514C189.589 190.181 187.773 188.536 185.95 186.529C187.676 187.845 189.41 189.524 191.274 191.514Z" fill="#F8E8E5"/>
<path d="M169.143 168.471C167.485 167.118 165.73 165.449 163.979 163.414C165.672 164.75 167.359 166.453 169.143 168.471Z" fill="#F8E8E5"/>
<path d="M174.101 173.593C172.519 172.434 170.833 170.959 169.179 169.121C170.807 170.264 172.401 171.77 174.101 173.593Z" fill="#F8E8E5"/>
<path d="M159.998 158.637C158.74 157.846 157.4 156.741 156.098 155.25C157.396 156.017 158.656 157.17 159.998 158.637Z" fill="#F8E8E5"/>
<path d="M197.111 197.587C196.18 197.079 195.15 196.262 194.13 195.071C195.097 195.557 196.054 196.417 197.111 197.587Z" fill="#F8E8E5"/>
<path d="M262.099 155.477C262.921 155.641 263.912 156.061 264.91 156.822C264.034 156.687 263.151 156.209 262.099 155.477Z" fill="#FAE4E2"/>
<path d="M156.056 154.555C155.132 154.043 154.123 153.219 153.132 152.023C154.09 152.514 155.031 153.379 156.056 154.555Z" fill="#F8E8E5"/>
<path d="M270.817 263.211C271.133 263.86 271.321 264.733 271.264 265.794C270.909 265.133 270.798 264.283 270.817 263.211Z" fill="#F8E3E1"/>
<path d="M150.964 149.445C151.381 149.475 151.832 149.799 152.554 150.203C152.825 150.284 152.827 150.663 152.778 150.846C152.151 150.6 151.574 150.169 150.964 149.445Z" fill="#F8E8E5"/>
<path d="M258.922 154.379C259.327 154.226 259.947 154.306 260.775 154.633C260.367 154.791 259.752 154.701 258.922 154.379Z" fill="#FAE4E2"/>
<path d="M137.59 307.852C137.671 308.099 137.486 308.41 137.02 308.759C136.934 308.504 137.13 308.21 137.59 307.852Z" fill="#F8E8E5"/>
<path d="M161.928 160.739C161.718 160.807 161.442 160.625 161.091 160.199C161.299 160.133 161.58 160.311 161.928 160.739Z" fill="#F8E8E5"/>
<path d="M138.586 306.777C138.685 307.009 138.518 307.352 138.066 307.782C137.961 307.542 138.141 307.215 138.586 306.777Z" fill="#F8E8E5"/>
<path d="M162.908 161.755C162.601 161.946 162.343 161.763 162.089 161.235C162.3 161.168 162.587 161.332 162.908 161.755Z" fill="#F8E8E5"/>
<path d="M176.036 175.674C175.806 175.748 175.508 175.554 175.138 175.095C175.367 175.022 175.668 175.214 176.036 175.674Z" fill="#F8E8E5"/>
<path d="M177 176.699C176.786 176.772 176.5 176.585 176.135 176.148C176.348 176.078 176.638 176.259 177 176.699Z" fill="#F8E8E5"/>
<path d="M178.011 177.706C177.794 177.782 177.508 177.6 177.131 177.172C177.34 177.101 177.64 177.274 178.011 177.706Z" fill="#F8E8E5"/>
<path d="M179.98 179.719C179.758 179.796 179.477 179.614 179.107 179.191C179.319 179.119 179.619 179.289 179.98 179.719Z" fill="#F8E8E5"/>
<path d="M180.929 180.751C180.717 180.816 180.447 180.628 180.1 180.199C180.305 180.138 180.588 180.317 180.929 180.751Z" fill="#F8E8E5"/>
<path d="M181.906 181.759C181.618 181.94 181.355 181.76 181.081 181.243C181.283 181.178 181.57 181.341 181.906 181.759Z" fill="#F8E8E5"/>
<path d="M183.862 183.791C183.574 183.988 183.313 183.824 183.051 183.317C183.337 183.091 183.617 183.243 183.862 183.791Z" fill="#F8E8E5"/>
<path d="M184.829 184.794C184.545 184.982 184.292 184.815 184.04 184.313C184.341 184.064 184.614 184.216 184.829 184.794Z" fill="#F8E8E5"/>
<path d="M148.942 59.0149C144.912 60.0942 139.876 61.7132 137.749 62.5767C129.578 65.9226 116.371 78.8745 111.894 87.8329C108.984 93.5533 102.94 100.461 98.1275 103.267C96.1129 104.562 88.0543 107.692 80.2195 110.283C66.7885 114.816 58.9538 118.702 52.5741 124.206C42.5008 132.841 32.2037 149.894 28.5102 163.817C24.9286 177.417 27.9506 203.105 35.1138 219.51C40.0385 230.843 40.8219 237.643 40.9339 270.131V300.46L45.0751 308.555C53.3575 324.853 69.2509 335.538 91.3001 339.747C109.096 343.201 116.036 347.195 128.012 360.794C135.175 368.781 144.241 384.755 148.382 396.52C152.075 407.205 159.127 414.544 170.095 419.401C179.497 423.611 189.011 423.395 196.51 418.97C203.449 414.868 210.724 406.45 213.298 399.542C217.775 387.669 220.685 382.596 226.394 377.2C237.25 366.838 252.472 360.902 274.298 358.635C299.033 355.937 312.464 351.08 324.552 340.287C348.056 319.24 356.339 292.905 348.504 264.087C345.818 254.265 345.37 250.811 345.37 236.672C345.37 217.784 347.049 208.501 353.988 189.721C360.592 171.373 361.599 167.379 361.599 158.852C361.599 150.002 360.368 145.685 355.779 139.317C349.623 130.574 339.438 125.717 323.545 123.882C306.644 121.94 293.884 113.521 287.505 100.029C278.886 81.7887 277.208 79.1983 271.611 75.8524C266.127 72.6144 266.015 72.6144 252.584 72.9382C213.97 74.0175 218.335 74.6651 199.308 64.8433C184.646 57.1801 164.611 54.9135 148.942 59.0149ZM221.917 90.5312C249.45 95.8199 272.619 107.908 292.877 127.552C320.411 154.211 333.618 185.08 333.618 222.964C333.618 275.527 303.51 321.291 253.703 344.172C233.221 353.563 211.396 357.772 187.668 356.693C151.963 355.074 120.401 341.582 95.2175 317.081C68.6913 291.394 54.9245 258.798 54.9245 221.993C54.9245 186.915 68.2436 154.859 93.0909 129.927C103.612 119.241 110.439 114.06 123.087 106.721C152.635 89.5598 187.556 83.8394 221.917 90.5312Z" fill="#951010"/>
<path d="M186.996 93.3374C175.692 94.093 163.604 96.1437 155.209 98.7341C106.746 113.521 71.7133 151.621 62.1996 199.867C60.2969 209.581 59.9611 232.247 61.64 242.608C64.7739 261.28 75.071 284.702 86.5993 299.273L92.6432 306.828L99.8064 306.504C103.724 306.288 108.201 305.533 109.768 304.777C115.476 302.187 115.588 300.892 116.707 218.863C117.714 141.907 118.05 133.165 119.841 130.466C121.52 127.768 124.43 130.142 143.457 149.786C153.53 160.148 176.699 183.245 194.831 201.054C213.075 218.863 234.9 240.449 243.518 249.084C252.024 257.719 259.412 264.842 259.971 265.058C260.419 265.274 260.867 263.871 260.755 261.82C260.755 259.877 260.083 233.758 259.3 203.752C257.733 145.145 257.509 142.986 251.689 139.964C250.346 139.209 245.645 138.345 241.28 138.021C235.348 137.482 233.445 136.942 233.445 135.755C233.445 134.352 237.698 134.028 262.433 133.596L291.534 133.057L283.699 126.257C260.867 106.181 232.661 95.0644 200.427 93.3374C195.838 93.1216 189.794 93.1216 186.996 93.3374Z" fill="#951010"/>
<path d="M286.05 138.885C281.573 140.72 279.782 144.066 278.775 152.161C278.215 156.478 277.208 193.93 276.536 235.377C275.864 276.823 274.969 311.469 274.633 312.332C273.402 315.57 269.373 313.52 258.292 303.698C242.511 289.775 173.341 222.101 151.852 199.543C142.114 189.289 133.944 181.194 133.832 181.302C133.608 181.518 134.167 206.127 134.951 236.132C136.63 295.711 137.189 300.136 143.009 303.914C144.8 304.993 149.165 305.964 153.307 306.288C159.127 306.72 160.694 307.26 161.029 308.663C161.365 310.498 159.351 310.605 131.145 310.713C114.469 310.821 100.366 310.929 99.8064 311.037C96.8964 311.361 98.0156 313.196 105.403 319.24C125.661 336.078 148.494 346.439 173.565 350.001C216.544 356.369 258.292 343.201 288.848 313.843C305.301 297.977 317.948 277.038 324.328 255.02C327.126 244.875 327.35 242.824 327.35 222.641C327.35 202.349 327.126 200.406 324.216 190.261C319.963 175.258 313.583 161.875 304.741 149.246C297.466 138.777 297.018 138.453 292.765 138.237C290.303 138.129 287.281 138.453 286.05 138.885Z" fill="#951010"/>
</svg>
