<svg version="1.1" id="Layer_1" xmlns="http://www.w3.org/2000/svg" xmlns:xlink="http://www.w3.org/1999/xlink" x="0px" y="0px"
	 width="100%" viewBox="0 0 1280 502" enable-background="new 0 0 1280 502" xml:space="preserve">
<path fill="#FFFFFF" opacity="1.000000" stroke="none" 
	d="
M775.000000,503.000000 
	C516.666687,503.000000 258.833374,503.000000 1.000035,503.000000 
	C1.000023,335.666687 1.000023,168.333389 1.000012,1.000057 
	C427.666626,1.000038 854.333252,1.000038 1281.000000,1.000019 
	C1281.000000,168.333267 1281.000000,335.666534 1281.000000,502.999908 
	C1112.500000,503.000000 944.000000,503.000000 775.000000,503.000000 
M99.861855,334.673462 
	C107.605286,337.046265 115.246490,339.860626 123.117386,341.682892 
	C133.538712,344.095642 142.212479,348.918701 149.428146,356.853577 
	C159.612808,368.053345 165.680435,381.392120 171.032303,395.305817 
	C176.048141,408.345886 185.906738,416.066254 199.847000,417.610138 
	C212.592209,419.021698 220.152512,410.983398 226.257950,401.324097 
	C228.181931,398.280212 229.098129,394.613190 230.621445,391.298401 
	C232.276398,387.697052 233.707291,383.903473 235.927353,380.668182 
	C242.117905,371.646637 251.104630,365.916870 261.359833,363.210541 
	C272.384857,360.301086 283.796478,358.698303 295.121643,357.113037 
	C335.057953,351.522919 361.515076,307.011139 349.289490,269.574585 
	C348.111542,265.967590 347.373688,262.160217 346.906586,258.387054 
	C344.022339,235.088028 349.407501,213.199646 357.842133,191.657745 
	C363.156830,178.084091 364.494293,164.299072 353.566345,152.296463 
	C346.683533,144.736832 337.712433,141.682846 327.681458,141.123016 
	C315.873199,140.463989 306.051758,135.599884 299.232880,125.901390 
	C295.933655,121.208878 293.990082,115.585129 291.153168,110.540215 
	C287.426971,103.913849 284.234222,96.029350 275.969299,94.426689 
	C269.098480,93.094360 261.678314,93.063866 254.721771,94.034889 
	C241.726822,95.848793 230.175140,94.604698 218.500641,87.330536 
	C196.201263,73.436195 154.950912,72.940659 137.277512,108.458275 
	C135.612427,111.804520 132.929901,114.704178 130.440994,117.569000 
	C124.292877,124.645721 115.423111,126.544037 107.060585,129.108429 
	C96.419373,132.371567 87.372330,137.842453 79.972496,146.149521 
	C60.972630,167.478806 58.253922,192.110168 65.433304,218.618011 
	C67.161812,225.000046 70.425690,230.987137 71.940353,237.402145 
	C75.929573,254.297562 75.029396,271.486267 73.845512,288.625458 
	C72.411804,309.381439 81.889191,324.002197 99.861855,334.673462 
M865.934082,284.534668 
	C859.990234,271.609558 854.534241,258.410004 844.463989,247.433533 
	C847.276306,246.851990 849.526672,246.461166 851.739319,245.917175 
	C867.947754,241.932419 879.506348,232.843552 882.526978,215.745392 
	C886.213501,194.877579 878.050354,174.259491 851.350098,173.807693 
	C829.377075,173.435913 807.392700,173.731842 784.856201,173.731842 
	C775.987549,216.058746 767.033691,258.792542 758.024719,301.789368 
	C767.038208,301.789368 775.661560,301.789368 784.584534,301.789368 
	C788.309814,284.137970 792.026245,266.528687 795.762146,248.827072 
	C798.675354,248.827072 801.038208,249.101425 803.317871,248.782150 
	C817.191956,246.839081 825.322754,253.775864 830.207703,265.889648 
	C830.580383,266.813812 831.028748,267.707336 831.407837,268.629150 
	C835.941101,279.652100 840.467834,290.677673 844.995178,301.699829 
	C854.169067,301.699829 863.384583,301.699829 873.113159,301.699829 
	C870.683350,295.939331 868.430359,290.598206 865.934082,284.534668 
M1128.250732,226.693115 
	C1123.072144,251.558228 1117.893677,276.423340 1112.505615,302.294891 
	C1134.953613,301.750122 1156.763306,301.789581 1178.489502,300.463684 
	C1190.077271,299.756500 1200.621094,294.698181 1209.493530,286.799927 
	C1231.744019,266.992249 1241.025513,231.747360 1231.133545,203.519272 
	C1224.836548,185.549652 1211.953369,175.643890 1192.979614,173.909454 
	C1187.515747,173.409988 1182.004395,173.298630 1176.512939,173.257355 
	C1164.222412,173.164932 1151.930664,173.228439 1139.533447,173.228439 
	C1135.775146,191.084900 1132.114624,208.476379 1128.250732,226.693115 
M1004.054810,204.517258 
	C998.346008,188.751587 987.609741,177.883957 971.428345,173.568085 
	C949.394104,167.691162 928.482361,171.113617 910.851746,185.924759 
	C888.518372,204.686523 880.567505,230.082077 882.552429,258.317963 
	C883.948425,278.176514 894.250427,293.260559 913.367981,300.652557 
	C926.979370,305.915558 941.174622,305.474457 955.059021,301.374207 
	C992.728088,290.249939 1016.059082,244.510010 1004.054810,204.517258 
M1010.955017,301.986694 
	C1012.274170,301.021973 1014.085388,300.340485 1014.830811,299.045532 
	C1018.973633,291.848206 1022.976013,284.562683 1026.768311,277.174866 
	C1028.154053,274.475189 1029.751099,273.423523 1032.878052,273.466003 
	C1047.197754,273.660645 1061.521484,273.554291 1075.843750,273.586548 
	C1077.103638,273.589386 1078.362915,273.813293 1079.693604,273.941376 
	C1081.179810,283.445435 1082.610840,292.595642 1084.046387,301.775391 
	C1092.520996,301.775391 1100.634888,301.775391 1109.159790,301.775391 
	C1102.166626,258.756958 1095.219604,216.022064 1088.264160,173.236374 
	C1079.458496,173.236374 1071.297607,173.424088 1063.152832,173.145828 
	C1059.801636,173.031342 1058.216431,174.252960 1056.621338,177.087097 
	C1033.709473,217.795090 1010.653931,258.422119 987.658386,299.083008 
	C987.212830,299.870850 987.075073,300.832733 986.697876,302.013397 
	C994.752441,302.013397 1002.404785,302.013397 1010.955017,301.986694 
M562.397095,246.071823 
	C558.460022,246.723587 554.506409,247.289215 550.589355,248.044876 
	C542.122986,249.678101 533.350769,250.485352 525.296387,253.316620 
	C513.293945,257.535675 506.936646,268.853119 508.172272,280.836456 
	C509.378448,292.534607 517.552979,301.435394 529.869812,303.747925 
	C544.293518,306.456024 557.669617,303.763916 569.579590,294.872864 
	C570.958801,293.843231 572.331360,292.804535 573.939087,291.595490 
	C574.873352,294.949860 575.456177,297.715820 576.464905,300.316589 
	C576.842529,301.290466 578.181946,302.494781 579.133667,302.540680 
	C583.856140,302.768463 588.595520,302.644592 593.972900,302.644592 
	C589.233826,293.639984 589.171082,284.644958 589.098267,275.672668 
	C588.987305,262.008362 589.111755,248.340866 588.878418,234.679123 
	C588.628662,220.055954 582.260742,212.134308 568.059448,208.861801 
	C555.454407,205.957123 542.935242,206.499023 530.700867,210.968292 
	C519.122375,215.197922 513.233704,223.909012 510.939667,235.971878 
	C516.304504,236.706741 521.318115,237.393494 524.495178,237.828674 
	C528.697876,232.322479 531.142212,226.352295 535.543701,223.911438 
	C545.687012,218.286591 556.825317,218.687836 566.979126,224.652908 
	C573.294373,228.362961 573.715942,235.345535 572.572021,241.574020 
	C572.230835,243.431427 567.148865,244.424652 564.228577,245.791519 
	C563.938721,245.927185 563.575745,245.906662 562.397095,246.071823 
M413.737976,208.756866 
	C410.291077,208.238922 406.860291,207.460403 403.394623,207.245560 
	C381.853912,205.910187 363.921448,218.871124 359.555084,239.855957 
	C357.919586,247.716309 357.709503,256.088196 358.221436,264.139618 
	C359.681763,287.106018 374.047424,301.776550 396.786377,304.512909 
	C419.554840,307.252808 439.975220,292.851044 443.664276,270.814026 
	C444.915802,263.337860 445.240112,255.543900 444.762360,247.972488 
	C443.525269,228.365463 432.437958,214.474411 413.737976,208.756866 
M700.207825,222.217621 
	C697.894104,217.423950 695.670898,212.582794 693.199829,207.871689 
	C692.619202,206.764587 691.240479,205.405350 690.162659,205.345032 
	C685.302795,205.073059 680.419067,205.226318 675.057312,205.226318 
	C676.012756,207.318909 676.585388,208.681656 677.244751,210.001129 
	C690.547913,236.625244 703.559021,263.402679 717.368835,289.761597 
	C721.178772,297.033569 721.783936,303.391205 719.202759,310.911865 
	C716.350342,319.222900 711.544128,322.785828 702.706116,321.711731 
	C700.530029,321.447266 698.371094,321.041534 695.750549,320.629395 
	C696.941895,325.414337 697.797729,329.314453 698.936523,333.130157 
	C699.258240,334.207977 700.240784,335.614410 701.203308,335.893372 
	C710.309631,338.532501 722.233154,338.495667 728.306519,326.519257 
	C730.690491,321.818298 732.602051,316.759888 733.917480,311.655182 
	C739.810974,288.784790 745.417480,265.840454 751.116821,242.920135 
	C754.198303,230.528046 757.258057,218.130600 760.387512,205.493774 
	C754.807251,205.493774 749.734131,205.493774 744.356384,205.493774 
	C738.605591,230.049637 732.904114,254.394791 727.184753,278.816345 
	C718.336304,260.217804 709.454224,241.548691 700.207825,222.217621 
M482.196503,245.500244 
	C482.196503,237.718262 482.196503,229.936264 482.196503,221.624023 
	C487.775024,221.624023 492.833984,221.624023 497.671692,221.624023 
	C497.671692,217.178253 497.671692,213.288834 497.671692,208.998383 
	C492.344452,208.998383 487.431854,208.998383 482.115601,208.998383 
	C482.115601,198.213867 482.115601,187.838440 482.115601,176.896515 
	C477.599182,179.595871 473.718384,182.090591 469.668427,184.271103 
	C467.181580,185.610016 466.132629,187.235229 466.242767,190.156815 
	C466.478485,196.407455 466.314941,202.673141 466.314941,209.434021 
	C462.201050,209.434021 458.643982,209.434021 455.103760,209.434021 
	C455.103760,213.729340 455.103760,217.511581 455.103760,221.810730 
	C458.873871,221.810730 462.437012,221.810730 466.333771,221.810730 
	C466.333771,226.785736 466.291779,231.246506 466.341187,235.706268 
	C466.531097,252.846207 466.549866,269.991577 467.042358,287.123138 
	C467.291473,295.790009 471.795654,301.603027 479.712189,302.727264 
	C486.292114,303.661682 493.110260,302.918579 500.449097,302.918579 
	C499.575012,297.634216 498.834717,293.158661 498.079590,288.593445 
	C496.703827,288.682434 495.883728,288.738098 495.063263,288.788147 
	C484.325073,289.443512 482.210083,287.428528 482.195251,276.464355 
	C482.181702,266.476318 482.195007,256.488251 482.196503,245.500244 
M636.431274,227.871216 
	C643.358521,221.536530 650.757385,223.322998 658.497192,226.868790 
	C660.332947,221.975098 662.113037,217.229675 663.961548,212.301971 
	C658.111389,208.982864 652.337097,206.675110 645.743835,207.319992 
	C636.996582,208.175583 632.698059,214.800888 627.463440,221.023911 
	C627.463440,217.157257 627.463440,213.290604 627.463440,209.512451 
	C622.403625,209.512451 617.966125,209.512451 613.467773,209.512451 
	C613.467773,240.630783 613.467773,271.492462 613.467773,302.427856 
	C618.759155,302.427856 623.688965,302.427856 629.071167,302.427856 
	C629.071167,300.555542 629.070496,298.931702 629.071289,297.307861 
	C629.078857,282.147949 628.843628,266.982452 629.191223,251.830338 
	C629.380920,243.560944 629.895691,235.121979 636.431274,227.871216 
z"/>
<path fill="#8B0606" opacity="1.000000" stroke="none" 
	d="
M99.550629,334.474701 
	C81.889191,324.002197 72.411804,309.381439 73.845512,288.625458 
	C75.029396,271.486267 75.929573,254.297562 71.940353,237.402145 
	C70.425690,230.987137 67.161812,225.000046 65.433304,218.618011 
	C58.253922,192.110168 60.972630,167.478806 79.972496,146.149521 
	C87.372330,137.842453 96.419373,132.371567 107.060585,129.108429 
	C115.423111,126.544037 124.292877,124.645721 130.440994,117.569000 
	C132.929901,114.704178 135.612427,111.804520 137.277512,108.458275 
	C154.950912,72.940659 196.201263,73.436195 218.500641,87.330536 
	C230.175140,94.604698 241.726822,95.848793 254.721771,94.034889 
	C261.678314,93.063866 269.098480,93.094360 275.969299,94.426689 
	C284.234222,96.029350 287.426971,103.913849 291.153168,110.540215 
	C293.990082,115.585129 295.933655,121.208878 299.232880,125.901390 
	C306.051758,135.599884 315.873199,140.463989 327.681458,141.123016 
	C337.712433,141.682846 346.683533,144.736832 353.566345,152.296463 
	C364.494293,164.299072 363.156830,178.084091 357.842133,191.657745 
	C349.407501,213.199646 344.022339,235.088028 346.906586,258.387054 
	C347.373688,262.160217 348.111542,265.967590 349.289490,269.574585 
	C361.515076,307.011139 335.057953,351.522919 295.121643,357.113037 
	C283.796478,358.698303 272.384857,360.301086 261.359833,363.210541 
	C251.104630,365.916870 242.117905,371.646637 235.927353,380.668182 
	C233.707291,383.903473 232.276398,387.697052 230.621445,391.298401 
	C229.098129,394.613190 228.181931,398.280212 226.257950,401.324097 
	C220.152512,410.983398 212.592209,419.021698 199.847000,417.610138 
	C185.906738,416.066254 176.048141,408.345886 171.032303,395.305817 
	C165.680435,381.392120 159.612808,368.053345 149.428146,356.853577 
	C142.212479,348.918701 133.538712,344.095642 123.117386,341.682892 
	C115.246490,339.860626 107.605286,337.046265 99.550629,334.474701 
M284.820312,333.320343 
	C340.550812,292.807495 353.164276,214.732773 312.932495,159.312302 
	C272.072723,103.026848 194.839584,90.807449 137.711609,131.589828 
	C82.981972,170.660065 70.245331,249.338196 109.714455,304.536713 
	C150.088760,361.001129 227.695419,374.002350 284.820312,333.320343 
z"/>
<path fill="#040404" opacity="1.000000" stroke="none" 
	d="
M866.055786,284.895874 
	C868.430359,290.598206 870.683350,295.939331 873.113159,301.699829 
	C863.384583,301.699829 854.169067,301.699829 844.995178,301.699829 
	C840.467834,290.677673 835.941101,279.652100 831.407837,268.629150 
	C831.028748,267.707336 830.580383,266.813812 830.207703,265.889648 
	C825.322754,253.775864 817.191956,246.839081 803.317871,248.782150 
	C801.038208,249.101425 798.675354,248.827072 795.762146,248.827072 
	C792.026245,266.528687 788.309814,284.137970 784.584534,301.789368 
	C775.661560,301.789368 767.038208,301.789368 758.024719,301.789368 
	C767.033691,258.792542 775.987549,216.058746 784.856201,173.731842 
	C807.392700,173.731842 829.377075,173.435913 851.350098,173.807693 
	C878.050354,174.259491 886.213501,194.877579 882.526978,215.745392 
	C879.506348,232.843552 867.947754,241.932419 851.739319,245.917175 
	C849.526672,246.461166 847.276306,246.851990 844.463989,247.433533 
	C854.534241,258.410004 859.990234,271.609558 866.055786,284.895874 
M802.774536,229.246674 
	C812.081909,229.110733 821.399780,229.201813 830.693787,228.774796 
	C839.941711,228.349884 848.467102,225.979507 853.867676,217.458954 
	C859.294617,208.896683 858.681580,195.384827 842.709656,195.122482 
	C830.921692,194.928833 819.128052,195.084427 806.948242,195.084427 
	C804.669128,205.916885 802.366089,216.753723 800.191711,227.616333 
	C800.108398,228.032761 801.265930,228.697556 802.774536,229.246674 
z"/>
<path fill="#050505" opacity="1.000000" stroke="none" 
	d="
M1128.352539,226.280487 
	C1132.114624,208.476379 1135.775146,191.084900 1139.533447,173.228439 
	C1151.930664,173.228439 1164.222412,173.164932 1176.512939,173.257355 
	C1182.004395,173.298630 1187.515747,173.409988 1192.979614,173.909454 
	C1211.953369,175.643890 1224.836548,185.549652 1231.133545,203.519272 
	C1241.025513,231.747360 1231.744019,266.992249 1209.493530,286.799927 
	C1200.621094,294.698181 1190.077271,299.756500 1178.489502,300.463684 
	C1156.763306,301.789581 1134.953613,301.750122 1112.505615,302.294891 
	C1117.893677,276.423340 1123.072144,251.558228 1128.352539,226.280487 
M1202.947144,253.325226 
	C1208.236084,241.573486 1209.087646,229.177750 1207.576050,216.646774 
	C1206.436279,207.199982 1202.231079,198.470764 1192.435913,196.394058 
	C1182.381714,194.262482 1171.764038,194.787918 1161.529785,194.158936 
	C1155.365356,223.786819 1149.456787,252.184677 1143.532715,280.657166 
	C1152.262817,280.657166 1160.404175,280.815155 1168.537109,280.621155 
	C1181.682861,280.307648 1191.101685,273.619659 1197.862549,262.759277 
	C1199.614746,259.944489 1201.071045,256.945526 1202.947144,253.325226 
z"/>
<path fill="#040404" opacity="1.000000" stroke="none" 
	d="
M1004.170898,204.898560 
	C1016.059082,244.510010 992.728088,290.249939 955.059021,301.374207 
	C941.174622,305.474457 926.979370,305.915558 913.367981,300.652557 
	C894.250427,293.260559 883.948425,278.176514 882.552429,258.317963 
	C880.567505,230.082077 888.518372,204.686523 910.851746,185.924759 
	C928.482361,171.113617 949.394104,167.691162 971.428345,173.568085 
	C987.609741,177.883957 998.346008,188.751587 1004.170898,204.898560 
M909.032227,239.790543 
	C909.155701,246.721512 908.033691,253.955978 909.634827,260.526886 
	C914.556580,280.724792 937.091858,288.324585 955.562073,276.641144 
	C973.713318,265.159393 985.270874,234.294922 979.159851,213.623428 
	C975.069702,199.788193 962.484985,191.763031 948.194702,193.428345 
	C936.038025,194.845001 927.255859,201.248795 920.573425,211.023911 
	C914.781677,219.496017 910.941040,228.803925 909.032227,239.790543 
z"/>
<path fill="#050505" opacity="1.000000" stroke="none" 
	d="
M1010.506042,302.000061 
	C1002.404785,302.013397 994.752441,302.013397 986.697876,302.013397 
	C987.075073,300.832733 987.212830,299.870850 987.658386,299.083008 
	C1010.653931,258.422119 1033.709473,217.795090 1056.621338,177.087097 
	C1058.216431,174.252960 1059.801636,173.031342 1063.152832,173.145828 
	C1071.297607,173.424088 1079.458496,173.236374 1088.264160,173.236374 
	C1095.219604,216.022064 1102.166626,258.756958 1109.159790,301.775391 
	C1100.634888,301.775391 1092.520996,301.775391 1084.046387,301.775391 
	C1082.610840,292.595642 1081.179810,283.445435 1079.693604,273.941376 
	C1078.362915,273.813293 1077.103638,273.589386 1075.843750,273.586548 
	C1061.521484,273.554291 1047.197754,273.660645 1032.878052,273.466003 
	C1029.751099,273.423523 1028.154053,274.475189 1026.768311,277.174866 
	C1022.976013,284.562683 1018.973633,291.848206 1014.830811,299.045532 
	C1014.085388,300.340485 1012.274170,301.021973 1010.506042,302.000061 
M1072.102905,222.353394 
	C1071.118774,215.447647 1070.134766,208.541901 1068.988159,200.496506 
	C1058.356201,218.227234 1048.421509,234.795059 1038.073364,252.052414 
	C1045.188721,252.052414 1051.302368,252.052399 1057.416016,252.052399 
	C1063.649780,252.052399 1069.883667,252.052414 1076.454590,252.052414 
	C1074.972656,241.964813 1073.596313,232.595886 1072.102905,222.353394 
z"/>
<path fill="#070707" opacity="1.000000" stroke="none" 
	d="
M562.821899,246.015228 
	C563.575745,245.906662 563.938721,245.927185 564.228577,245.791519 
	C567.148865,244.424652 572.230835,243.431427 572.572021,241.574020 
	C573.715942,235.345535 573.294373,228.362961 566.979126,224.652908 
	C556.825317,218.687836 545.687012,218.286591 535.543701,223.911438 
	C531.142212,226.352295 528.697876,232.322479 524.495178,237.828674 
	C521.318115,237.393494 516.304504,236.706741 510.939667,235.971878 
	C513.233704,223.909012 519.122375,215.197922 530.700867,210.968292 
	C542.935242,206.499023 555.454407,205.957123 568.059448,208.861801 
	C582.260742,212.134308 588.628662,220.055954 588.878418,234.679123 
	C589.111755,248.340866 588.987305,262.008362 589.098267,275.672668 
	C589.171082,284.644958 589.233826,293.639984 593.972900,302.644592 
	C588.595520,302.644592 583.856140,302.768463 579.133667,302.540680 
	C578.181946,302.494781 576.842529,301.290466 576.464905,300.316589 
	C575.456177,297.715820 574.873352,294.949860 573.939087,291.595490 
	C572.331360,292.804535 570.958801,293.843231 569.579590,294.872864 
	C557.669617,303.763916 544.293518,306.456024 529.869812,303.747925 
	C517.552979,301.435394 509.378448,292.534607 508.172272,280.836456 
	C506.936646,268.853119 513.293945,257.535675 525.296387,253.316620 
	C533.350769,250.485352 542.122986,249.678101 550.589355,248.044876 
	C554.506409,247.289215 558.460022,246.723587 562.821899,246.015228 
M531.605835,265.925018 
	C526.076477,270.088654 523.954346,275.257599 525.434021,280.957581 
	C526.953613,286.811371 532.066833,290.984070 538.847168,291.903687 
	C561.460815,294.970764 576.554077,278.972717 572.439270,256.617523 
	C565.824646,258.080139 559.201355,259.536224 552.582153,261.010620 
	C545.809387,262.519196 539.040710,264.045746 531.605835,265.925018 
z"/>
<path fill="#060606" opacity="1.000000" stroke="none" 
	d="
M414.138184,208.837631 
	C432.437958,214.474411 443.525269,228.365463 444.762360,247.972488 
	C445.240112,255.543900 444.915802,263.337860 443.664276,270.814026 
	C439.975220,292.851044 419.554840,307.252808 396.786377,304.512909 
	C374.047424,301.776550 359.681763,287.106018 358.221436,264.139618 
	C357.709503,256.088196 357.919586,247.716309 359.555084,239.855957 
	C363.921448,218.871124 381.853912,205.910187 403.394623,207.245560 
	C406.860291,207.460403 410.291077,208.238922 414.138184,208.837631 
M424.352264,277.658173 
	C429.776093,265.811707 430.193146,253.499329 427.005798,241.127090 
	C423.655487,228.122208 413.481049,220.243164 401.157104,220.320206 
	C388.877075,220.396973 378.958160,228.513962 375.685333,241.629776 
	C373.187561,251.639679 373.130249,261.794525 376.110626,271.712402 
	C379.386688,282.614288 386.324402,289.857300 398.106812,291.294922 
	C409.539581,292.689880 418.119385,288.120087 424.352264,277.658173 
z"/>
<path fill="#070707" opacity="1.000000" stroke="none" 
	d="
M700.390015,222.548584 
	C709.454224,241.548691 718.336304,260.217804 727.184753,278.816345 
	C732.904114,254.394791 738.605591,230.049637 744.356384,205.493774 
	C749.734131,205.493774 754.807251,205.493774 760.387512,205.493774 
	C757.258057,218.130600 754.198303,230.528046 751.116821,242.920135 
	C745.417480,265.840454 739.810974,288.784790 733.917480,311.655182 
	C732.602051,316.759888 730.690491,321.818298 728.306519,326.519257 
	C722.233154,338.495667 710.309631,338.532501 701.203308,335.893372 
	C700.240784,335.614410 699.258240,334.207977 698.936523,333.130157 
	C697.797729,329.314453 696.941895,325.414337 695.750549,320.629395 
	C698.371094,321.041534 700.530029,321.447266 702.706116,321.711731 
	C711.544128,322.785828 716.350342,319.222900 719.202759,310.911865 
	C721.783936,303.391205 721.178772,297.033569 717.368835,289.761597 
	C703.559021,263.402679 690.547913,236.625244 677.244751,210.001129 
	C676.585388,208.681656 676.012756,207.318909 675.057312,205.226318 
	C680.419067,205.226318 685.302795,205.073059 690.162659,205.345032 
	C691.240479,205.405350 692.619202,206.764587 693.199829,207.871689 
	C695.670898,212.582794 697.894104,217.423950 700.390015,222.548584 
z"/>
<path fill="#080808" opacity="1.000000" stroke="none" 
	d="
M482.196503,246.000214 
	C482.195007,256.488251 482.181702,266.476318 482.195251,276.464355 
	C482.210083,287.428528 484.325073,289.443512 495.063263,288.788147 
	C495.883728,288.738098 496.703827,288.682434 498.079590,288.593445 
	C498.834717,293.158661 499.575012,297.634216 500.449097,302.918579 
	C493.110260,302.918579 486.292114,303.661682 479.712189,302.727264 
	C471.795654,301.603027 467.291473,295.790009 467.042358,287.123138 
	C466.549866,269.991577 466.531097,252.846207 466.341187,235.706268 
	C466.291779,231.246506 466.333771,226.785736 466.333771,221.810730 
	C462.437012,221.810730 458.873871,221.810730 455.103760,221.810730 
	C455.103760,217.511581 455.103760,213.729340 455.103760,209.434021 
	C458.643982,209.434021 462.201050,209.434021 466.314941,209.434021 
	C466.314941,202.673141 466.478485,196.407455 466.242767,190.156815 
	C466.132629,187.235229 467.181580,185.610016 469.668427,184.271103 
	C473.718384,182.090591 477.599182,179.595871 482.115601,176.896515 
	C482.115601,187.838440 482.115601,198.213867 482.115601,208.998383 
	C487.431854,208.998383 492.344452,208.998383 497.671692,208.998383 
	C497.671692,213.288834 497.671692,217.178253 497.671692,221.624023 
	C492.833984,221.624023 487.775024,221.624023 482.196503,221.624023 
	C482.196503,229.936264 482.196503,237.718262 482.196503,246.000214 
z"/>
<path fill="#080808" opacity="1.000000" stroke="none" 
	d="
M636.164062,228.132935 
	C629.895691,235.121979 629.380920,243.560944 629.191223,251.830338 
	C628.843628,266.982452 629.078857,282.147949 629.071289,297.307861 
	C629.070496,298.931702 629.071167,300.555542 629.071167,302.427856 
	C623.688965,302.427856 618.759155,302.427856 613.467773,302.427856 
	C613.467773,271.492462 613.467773,240.630783 613.467773,209.512451 
	C617.966125,209.512451 622.403625,209.512451 627.463440,209.512451 
	C627.463440,213.290604 627.463440,217.157257 627.463440,221.023911 
	C632.698059,214.800888 636.996582,208.175583 645.743835,207.319992 
	C652.337097,206.675110 658.111389,208.982864 663.961548,212.301971 
	C662.113037,217.229675 660.332947,221.975098 658.497192,226.868790 
	C650.757385,223.322998 643.358521,221.536530 636.164062,228.132935 
z"/>
<path fill="#F8E8E5" opacity="1.000000" stroke="none" 
	d="
M284.542847,333.549500 
	C227.695419,374.002350 150.088760,361.001129 109.714455,304.536713 
	C70.245331,249.338196 82.981972,170.660065 137.711609,131.589828 
	C194.839584,90.807449 272.072723,103.026848 312.932495,159.312302 
	C353.164276,214.732773 340.550812,292.807495 284.542847,333.549500 
M133.979095,323.671509 
	C134.302826,323.826752 134.626541,323.981995 135.160767,324.561462 
	C135.382614,324.807922 135.658218,324.950378 136.205872,325.521515 
	C136.683350,325.828674 137.160812,326.135834 137.857910,326.036530 
	C137.857910,326.036530 137.628662,326.445129 137.947678,326.939362 
	C138.598877,327.342285 139.250061,327.745178 139.967529,328.034698 
	C139.967529,328.034698 139.861832,328.112671 140.110214,328.635834 
	C140.618210,328.903503 141.126205,329.171173 142.043121,329.261505 
	C142.043121,329.261505 141.625580,329.414490 141.903214,329.884644 
	C142.232239,330.024231 142.561264,330.163788 143.295029,330.831055 
	C174.244873,351.599457 207.957657,357.680450 243.764725,347.677368 
	C324.457550,325.135101 357.494720,229.692627 308.530151,161.792557 
	C301.987122,152.719208 300.558777,152.239731 291.111389,155.215118 
	C292.075470,153.799194 293.039581,152.383286 293.998383,150.510559 
	C293.998383,150.510559 293.994446,150.053772 294.701141,149.874100 
	C295.662231,149.826828 296.623291,149.779556 298.217316,149.701141 
	C296.639038,148.021713 295.495667,146.640808 294.188293,145.438171 
	C268.825562,122.107285 238.971252,110.132851 204.504868,112.909386 
	C152.301285,117.114792 116.031860,144.338821 98.420090,193.523682 
	C83.546867,235.060547 91.883377,273.808838 119.075829,308.462830 
	C119.880470,309.488220 121.386620,310.721832 122.471237,310.637909 
	C127.243637,310.268494 131.981323,309.450562 136.900528,309.669983 
	C137.332840,311.081482 137.765167,312.493011 137.393524,314.108459 
	C133.375931,314.108459 129.358337,314.108459 125.340752,314.108459 
	C125.187729,314.550903 125.034706,314.993347 124.881676,315.435791 
	C127.502029,317.718964 130.122391,320.002136 132.925049,322.110291 
	C132.925049,322.110291 132.709793,322.242706 132.911453,322.743317 
	C133.225967,322.903351 133.540466,323.063385 133.882080,323.125702 
	C133.882080,323.125702 133.784271,323.152466 133.979095,323.671509 
z"/>
<path fill="#FCFCFC" opacity="1.000000" stroke="none" 
	d="
M802.309875,229.246643 
	C801.265930,228.697556 800.108398,228.032761 800.191711,227.616333 
	C802.366089,216.753723 804.669128,205.916885 806.948242,195.084427 
	C819.128052,195.084427 830.921692,194.928833 842.709656,195.122482 
	C858.681580,195.384827 859.294617,208.896683 853.867676,217.458954 
	C848.467102,225.979507 839.941711,228.349884 830.693787,228.774796 
	C821.399780,229.201813 812.081909,229.110733 802.309875,229.246643 
z"/>
<path fill="#FCFCFC" opacity="1.000000" stroke="none" 
	d="
M1202.805176,253.678192 
	C1201.071045,256.945526 1199.614746,259.944489 1197.862549,262.759277 
	C1191.101685,273.619659 1181.682861,280.307648 1168.537109,280.621155 
	C1160.404175,280.815155 1152.262817,280.657166 1143.532715,280.657166 
	C1149.456787,252.184677 1155.365356,223.786819 1161.529785,194.158936 
	C1171.764038,194.787918 1182.381714,194.262482 1192.435913,196.394058 
	C1202.231079,198.470764 1206.436279,207.199982 1207.576050,216.646774 
	C1209.087646,229.177750 1208.236084,241.573486 1202.805176,253.678192 
z"/>
<path fill="#FDFDFD" opacity="1.000000" stroke="none" 
	d="
M909.085327,239.359680 
	C910.941040,228.803925 914.781677,219.496017 920.573425,211.023911 
	C927.255859,201.248795 936.038025,194.845001 948.194702,193.428345 
	C962.484985,191.763031 975.069702,199.788193 979.159851,213.623428 
	C985.270874,234.294922 973.713318,265.159393 955.562073,276.641144 
	C937.091858,288.324585 914.556580,280.724792 909.634827,260.526886 
	C908.033691,253.955978 909.155701,246.721512 909.085327,239.359680 
z"/>
<path fill="#FAFAFA" opacity="1.000000" stroke="none" 
	d="
M1072.161499,222.790176 
	C1073.596313,232.595886 1074.972656,241.964813 1076.454590,252.052414 
	C1069.883667,252.052414 1063.649780,252.052399 1057.416016,252.052399 
	C1051.302368,252.052399 1045.188721,252.052414 1038.073364,252.052414 
	C1048.421509,234.795059 1058.356201,218.227234 1068.988159,200.496506 
	C1070.134766,208.541901 1071.118774,215.447647 1072.161499,222.790176 
z"/>
<path fill="#FAFAFA" opacity="1.000000" stroke="none" 
	d="
M531.937988,265.744690 
	C539.040710,264.045746 545.809387,262.519196 552.582153,261.010620 
	C559.201355,259.536224 565.824646,258.080139 572.439270,256.617523 
	C576.554077,278.972717 561.460815,294.970764 538.847168,291.903687 
	C532.066833,290.984070 526.953613,286.811371 525.434021,280.957581 
	C523.954346,275.257599 526.076477,270.088654 531.937988,265.744690 
z"/>
<path fill="#FCFCFC" opacity="1.000000" stroke="none" 
	d="
M424.185669,277.992310 
	C418.119385,288.120087 409.539581,292.689880 398.106812,291.294922 
	C386.324402,289.857300 379.386688,282.614288 376.110626,271.712402 
	C373.130249,261.794525 373.187561,251.639679 375.685333,241.629776 
	C378.958160,228.513962 388.877075,220.396973 401.157104,220.320206 
	C413.481049,220.243164 423.655487,228.122208 427.005798,241.127090 
	C430.193146,253.499329 429.776093,265.811707 424.185669,277.992310 
z"/>
<path fill="#8C0303" opacity="1.000000" stroke="none" 
	d="
M136.731598,308.795197 
	C131.981323,309.450562 127.243637,310.268494 122.471237,310.637909 
	C121.386620,310.721832 119.880470,309.488220 119.075829,308.462830 
	C91.883377,273.808838 83.546867,235.060547 98.420090,193.523682 
	C116.031860,144.338821 152.301285,117.114792 204.504868,112.909386 
	C238.971252,110.132851 268.825562,122.107285 294.188293,145.438171 
	C295.495667,146.640808 296.639038,148.021713 298.217316,149.701141 
	C296.623291,149.779556 295.662231,149.826828 294.099487,149.893555 
	C293.336090,149.971725 293.174316,150.030472 292.676880,150.008270 
	C291.888947,149.988846 291.436646,150.050339 290.524597,150.022003 
	C280.717102,150.000092 271.369293,150.068008 261.576965,150.045837 
	C258.417297,149.989487 255.702103,150.023239 252.585678,149.955170 
	C250.138901,150.284958 248.093369,150.716553 246.047836,151.148148 
	C246.128723,151.909286 246.209610,152.670425 246.290512,153.431564 
	C249.188156,153.559631 252.085800,153.687683 255.346619,153.913605 
	C256.708710,154.056686 257.707611,154.101868 258.921570,154.378967 
	C259.751770,154.701111 260.366913,154.791367 261.199402,155.021378 
	C261.587708,155.181503 261.758728,155.201859 262.098633,155.476715 
	C263.150909,156.209076 264.034332,156.686935 265.039673,157.457504 
	C265.833282,158.826248 266.504974,159.902283 267.167480,161.364594 
	C267.706329,164.009659 268.254272,166.268478 268.708679,168.947037 
	C268.768738,172.912460 268.922333,176.458115 268.979492,180.463501 
	C269.077332,188.258911 269.271606,195.594635 269.390320,203.318909 
	C269.494446,205.795319 269.674103,207.883148 269.703674,210.296234 
	C269.691650,212.748535 269.829712,214.875595 269.900482,217.449219 
	C269.926270,220.600357 270.019348,223.304947 270.016022,226.468658 
	C270.221710,235.786301 270.523773,244.644852 270.721558,253.915131 
	C270.726746,257.213654 270.836212,260.100403 270.816711,263.210602 
	C270.798340,264.283356 270.908936,265.132721 270.940735,266.389465 
	C270.861908,268.488342 270.861908,270.179779 270.861908,272.310486 
	C266.002655,267.604004 261.658173,263.566040 257.502502,259.342316 
	C237.377289,238.887665 217.302795,218.383118 197.110901,197.586487 
	C196.054443,196.416916 195.097427,195.557114 194.045868,194.423187 
	C193.102341,193.374512 192.253372,192.599945 191.273941,191.514221 
	C189.409836,189.524246 187.676208,187.845459 185.847900,185.910080 
	C185.459488,185.448029 185.165726,185.242554 184.829102,184.793518 
	C184.614136,184.216385 184.340973,184.063782 183.974243,184.055557 
	C183.981766,184.019012 183.908691,184.034103 183.861877,183.790726 
	C183.617264,183.242599 183.336685,183.091171 182.896851,182.838745 
	C182.531921,182.394043 182.243469,182.203690 181.906128,181.759216 
	C181.569885,181.341415 181.282547,181.177734 180.997910,181.006714 
	C181.000610,180.999390 180.986084,181.004929 180.928772,180.750900 
	C180.588364,180.317307 180.305283,180.137741 180.009720,179.978027 
	C179.997253,179.997879 180.039734,179.978317 179.979675,179.718628 
	C179.619247,179.289047 179.318893,179.119156 178.956635,178.709045 
	C178.714737,178.153275 178.443375,177.985321 178.010513,177.706100 
	C177.640182,177.273865 177.339996,177.100510 177.022751,176.960388 
	C177.005692,176.993637 177.071716,176.958603 177.000305,176.699097 
	C176.638275,176.258774 176.347672,176.077942 176.040085,175.937469 
	C176.023102,175.977814 176.103180,175.942444 176.035828,175.674072 
	C175.667770,175.214050 175.367096,175.022415 175.019089,174.602386 
	C174.806473,174.070801 174.551178,173.915817 174.100830,173.592560 
	C172.401260,171.769943 170.806793,170.263809 169.129303,168.855255 
	C169.046280,168.952835 169.241165,168.786484 169.143433,168.471375 
	C167.358810,166.453064 165.671936,164.749863 163.906235,162.793152 
	C163.531677,162.364822 163.235947,162.189972 162.907806,161.755203 
	C162.587463,161.331650 162.299515,161.168030 162.007294,161.000305 
	C162.003052,160.996201 161.993820,160.988708 161.927780,160.739090 
	C161.580276,160.311356 161.298813,160.133255 160.958557,159.713760 
	C160.703903,159.177811 160.431046,159.004227 159.998138,158.637299 
	C158.655579,157.169754 157.396118,156.016556 156.069153,154.931976 
	C156.001678,155.000610 156.140625,154.866882 156.056213,154.555145 
	C155.030823,153.378815 154.089828,152.514221 153.108536,151.450653 
	C153.068222,151.251648 152.728271,151.029526 152.777542,150.846283 
	C152.826813,150.663040 152.825348,150.283630 152.869553,149.883759 
	C151.749222,143.526794 147.416580,145.263702 143.416885,145.321014 
	C142.925797,148.696899 142.122787,151.773590 142.090271,154.858398 
	C141.939743,169.140900 141.986298,183.425720 142.023453,197.709534 
	C142.026306,198.805771 142.503876,199.900757 142.824005,201.435577 
	C142.806351,204.233917 142.725449,206.593002 142.280334,209.086548 
	C141.620056,210.626205 141.086395,212.027649 141.064056,213.437195 
	C140.787216,230.903656 140.575516,248.371231 140.422058,265.839172 
	C140.418549,266.237457 141.291092,266.643433 141.825317,267.462830 
	C141.824768,269.565125 141.753876,271.250458 141.313644,273.067841 
	C140.863922,281.819092 140.783524,290.438232 140.723404,299.414215 
	C140.220779,301.853271 139.697876,303.935516 139.028809,306.147095 
	C138.882675,306.276428 138.851135,306.665436 138.586426,306.776978 
	C138.141266,307.215027 137.960815,307.541565 137.832260,307.878906 
	C137.884155,307.889771 137.855911,307.787598 137.590439,307.851868 
	C137.129532,308.209869 136.934097,308.503632 136.740814,308.821411 
	C136.742981,308.845459 136.731598,308.795197 136.731598,308.795197 
z"/>
<path fill="#8C0404" opacity="1.000000" stroke="none" 
	d="
M290.995605,155.906326 
	C300.558777,152.239731 301.987122,152.719208 308.530151,161.792557 
	C357.494720,229.692627 324.457550,325.135101 243.764725,347.677368 
	C207.957657,357.680450 174.244873,351.599457 142.999557,330.283295 
	C142.344589,329.628510 141.985077,329.521484 141.625580,329.414490 
	C141.625580,329.414490 142.043121,329.261505 141.816071,329.019470 
	C141.013275,328.555878 140.437561,328.334259 139.861832,328.112671 
	C139.861832,328.112671 139.967529,328.034698 139.915405,327.730164 
	C139.118408,327.098816 138.373535,326.771973 137.628662,326.445129 
	C137.628662,326.445129 137.857910,326.036530 137.742462,325.915161 
	C137.080551,325.525482 136.534058,325.257172 135.987579,324.988861 
	C135.658218,324.950378 135.382614,324.807922 134.951065,324.094177 
	C134.422333,323.468719 134.103302,323.310608 133.784271,323.152466 
	C133.784271,323.152466 133.882080,323.125702 133.792282,322.900635 
	C133.371582,322.531311 133.040695,322.386993 132.709793,322.242706 
	C132.709793,322.242706 132.925049,322.110291 132.881744,321.825867 
	C131.995697,319.902496 131.152985,318.263580 129.883514,315.794678 
	C134.167023,315.794678 137.624023,315.807373 141.080872,315.791992 
	C147.906860,315.761627 154.732910,315.670502 161.558685,315.689819 
	C167.522064,315.706665 173.497009,316.070770 179.440048,315.763641 
	C180.959244,315.685150 182.377121,313.646210 183.841553,312.507996 
	C182.537018,311.331421 181.373322,309.395630 179.901169,309.122498 
	C175.709396,308.344818 171.391922,308.244629 167.074219,307.520264 
	C165.393417,305.064667 163.762314,302.966614 162.096268,300.424011 
	C161.695587,293.742981 161.376648,287.502991 160.905853,281.274506 
	C160.845825,280.480408 159.992920,279.746246 159.410614,278.654755 
	C159.203506,277.884186 159.093109,277.443176 159.060059,276.604614 
	C159.184143,275.131165 159.230911,274.055298 159.520706,272.647278 
	C159.496140,251.250854 159.239273,230.186401 158.913574,209.123032 
	C158.902847,208.429459 158.192551,207.746689 157.676392,206.671219 
	C157.348312,203.855118 157.152191,201.426666 157.024902,198.614258 
	C157.191971,196.900360 157.290207,195.570419 157.425964,193.732635 
	C158.471069,194.664261 158.989182,195.067749 159.439804,195.536179 
	C183.212860,220.247864 206.870544,245.071808 230.789246,269.641632 
	C245.188904,284.433289 259.926575,298.899384 274.703918,313.315399 
	C276.513947,315.081146 279.512512,315.628601 281.960297,316.740631 
	C282.620544,314.276337 283.770020,311.828888 283.855713,309.344757 
	C284.211700,299.026520 284.243042,288.697113 284.400269,278.371918 
	C284.935150,243.238297 285.472900,208.104706 286.129425,172.869507 
	C286.371765,172.425522 286.305817,172.145264 286.165405,171.569778 
	C286.385956,169.486084 286.492584,167.759781 286.734192,165.665649 
	C287.203979,163.518677 287.538757,161.739487 287.941864,159.926514 
	C288.010193,159.892715 287.936401,159.759308 288.068329,159.713684 
	C288.372559,159.496964 288.363617,159.335983 288.444580,158.943695 
	C289.475647,157.770279 290.235626,156.838303 290.995605,155.906326 
z"/>
<path fill="#FDFBFB" opacity="1.000000" stroke="none" 
	d="
M291.053497,155.560730 
	C290.235626,156.838303 289.475647,157.770279 288.361755,159.016907 
	C288.007843,159.331558 287.936401,159.759308 287.936401,159.759308 
	C287.936401,159.759308 288.010193,159.892715 287.564209,159.948212 
	C283.670868,161.731796 284.394958,163.818924 286.599213,166.033463 
	C286.492584,167.759781 286.385956,169.486084 286.115387,171.828964 
	C285.970825,172.620712 285.990204,172.795914 286.009521,172.971100 
	C285.472900,208.104706 284.935150,243.238297 284.400269,278.371918 
	C284.243042,288.697113 284.211700,299.026520 283.855713,309.344757 
	C283.770020,311.828888 282.620544,314.276337 281.960297,316.740631 
	C279.512512,315.628601 276.513947,315.081146 274.703918,313.315399 
	C259.926575,298.899384 245.188904,284.433289 230.789246,269.641632 
	C206.870544,245.071808 183.212860,220.247864 159.439804,195.536179 
	C158.989182,195.067749 158.471069,194.664261 157.425964,193.732635 
	C157.290207,195.570419 157.191971,196.900360 156.655228,198.691681 
	C155.837936,199.812454 155.098053,200.492523 155.134460,201.128113 
	C155.700256,211.001389 156.351288,220.869980 157.039444,230.735687 
	C157.092987,231.503326 157.569153,232.241486 157.929550,233.450302 
	C158.056534,237.921860 158.102875,241.936462 157.855804,246.175980 
	C158.100403,248.590912 153.851944,251.363846 158.496979,253.433197 
	C158.575211,254.560043 158.530869,255.322281 158.296722,256.433716 
	C158.349182,260.854279 158.591446,264.925629 158.910431,269.392273 
	C159.084000,270.851471 159.180847,271.915436 159.277679,272.979401 
	C159.230911,274.055298 159.184143,275.131165 158.716125,276.668396 
	C156.352066,278.821991 156.256607,280.175354 159.098465,281.374084 
	C159.154556,282.493439 159.118332,283.245422 158.685486,284.082764 
	C157.601532,288.265594 156.914185,292.363007 156.183121,296.721069 
	C157.909195,296.811737 159.012787,296.869720 160.060608,296.944031 
	C160.004822,296.960358 160.097534,296.890167 160.039825,297.226562 
	C160.263794,298.373718 160.545486,299.184509 160.934509,300.220490 
	C161.041855,300.445709 161.021255,300.944244 160.989197,301.347137 
	C161.672409,303.144592 162.387665,304.539154 163.054596,305.954559 
	C163.006241,305.975403 163.078232,305.898560 163.047363,306.266541 
	C163.825058,308.216370 164.633591,309.798187 165.420074,311.336853 
	C164.270294,312.200775 163.130875,313.056885 161.593719,313.974091 
	C160.128311,313.962433 159.060669,313.889740 157.673492,313.557861 
	C152.571075,313.472412 147.788193,313.646149 142.701172,313.899231 
	C141.596237,313.866333 140.795425,313.754181 139.892151,313.416840 
	C139.666595,313.094360 139.543518,312.997009 139.420456,312.899689 
	C139.594543,313.153015 139.768631,313.406342 139.521393,313.827759 
	C138.799210,313.965393 138.498337,313.934937 138.197479,313.904510 
	C137.765167,312.493011 137.332840,311.081482 136.816071,309.232605 
	C136.731598,308.795197 136.742981,308.845459 137.022308,308.783386 
	C137.486404,308.410065 137.671158,308.098846 137.855927,307.787598 
	C137.855911,307.787598 137.884155,307.889771 138.117737,307.792725 
	C138.517929,307.352264 138.684540,307.008850 138.851135,306.665436 
	C138.851135,306.665436 138.882675,306.276428 139.410751,306.141602 
	C140.931671,304.508667 142.616135,303.068390 142.747406,301.498230 
	C142.923080,299.396881 141.895248,297.194855 141.335144,294.659790 
	C141.496094,292.519043 141.706131,290.754608 142.280380,288.929352 
	C144.485199,286.983185 145.047806,285.260956 141.945312,283.542816 
	C141.806213,279.704620 141.744598,276.320190 141.682983,272.935760 
	C141.753876,271.250458 141.824768,269.565125 141.930542,267.128174 
	C142.033356,265.915558 142.101257,265.454590 142.428131,264.671478 
	C142.741913,253.742752 142.796738,243.136200 142.723785,232.111267 
	C142.721420,227.797714 142.846832,223.902527 143.223160,219.825531 
	C143.320938,218.761612 143.167816,217.879501 142.943527,216.554901 
	C142.796417,213.725616 142.720474,211.338852 142.644547,208.952072 
	C142.725449,206.593002 142.806351,204.233917 142.932892,201.070465 
	C143.043076,199.508881 143.107605,198.751678 143.429108,197.670914 
	C143.735321,187.727051 143.784531,178.106781 143.700516,168.110748 
	C143.644562,166.147339 143.721832,164.559677 144.190765,162.914261 
	C146.444641,160.369553 147.532349,157.958450 143.819153,155.638000 
	C143.797363,154.513153 143.868164,153.758774 144.205536,152.889893 
	C145.359116,149.405655 148.127258,149.277084 150.897232,149.066345 
	C150.942978,149.059830 150.930115,149.151337 150.963715,149.445404 
	C151.574310,150.169495 152.151291,150.599503 152.728271,151.029526 
	C152.728271,151.029526 153.068222,151.251648 153.091263,151.823563 
	C154.123077,153.219284 155.131851,154.043091 156.140625,154.866882 
	C156.140625,154.866882 156.001678,155.000610 156.030304,155.318253 
	C157.399704,156.741135 158.740463,157.846390 160.081223,158.951630 
	C160.431046,159.004227 160.703903,159.177811 161.032608,159.957764 
	C161.441559,160.625015 161.717697,160.806854 161.993820,160.988708 
	C161.993820,160.988708 162.003052,160.996201 162.084366,161.230865 
	C162.342682,161.763107 162.600861,161.946304 162.940201,162.015121 
	C163.235947,162.189972 163.531677,162.364822 163.900696,163.160172 
	C165.729706,165.449280 167.485443,167.117874 169.241165,168.786484 
	C169.241165,168.786484 169.046280,168.952835 169.096039,169.218292 
	C170.832504,170.958847 172.519196,172.433960 174.205902,173.909058 
	C174.551178,173.915817 174.806473,174.070801 175.091080,174.867081 
	C175.507980,175.554260 175.805573,175.748352 176.103180,175.942444 
	C176.103180,175.942444 176.023102,175.977814 176.118286,176.188202 
	C176.499542,176.585266 176.785629,176.771927 177.071716,176.958603 
	C177.071716,176.958603 177.005692,176.993637 177.113922,177.205231 
	C177.508316,177.599533 177.794479,177.782257 178.080643,177.964981 
	C178.443375,177.985321 178.714737,178.153275 179.045013,178.950470 
	C179.476776,179.614166 179.758255,179.796249 180.039734,179.978317 
	C180.039734,179.978317 179.997253,179.997879 180.087372,180.218430 
	C180.447021,180.627640 180.716553,180.816284 180.986084,181.004929 
	C180.986084,181.004929 181.000610,180.999390 181.083252,181.235626 
	C181.355057,181.759995 181.618103,181.940491 181.955032,182.013351 
	C182.243469,182.203690 182.531921,182.394043 182.974091,183.062683 
	C183.313278,183.823837 183.573563,183.988220 183.908691,184.034103 
	C183.908691,184.034103 183.981766,184.019012 184.047394,184.276825 
	C184.291550,184.814545 184.544540,184.982025 184.871979,185.037094 
	C185.165726,185.242554 185.459488,185.448029 185.855606,186.272491 
	C187.773453,188.536118 189.588928,190.180756 191.404419,191.825394 
	C192.253372,192.599945 193.102341,193.374512 194.035263,194.796844 
	C195.149597,196.261841 196.179962,197.079056 197.210327,197.896255 
	C217.302795,218.383118 237.377289,238.887665 257.502502,259.342316 
	C261.658173,263.566040 266.002655,267.604004 270.861908,272.310486 
	C270.861908,270.179779 270.861908,268.488342 271.185242,266.201233 
	C271.320923,264.732758 271.133301,263.859985 270.945679,262.987183 
	C270.836212,260.100403 270.726746,257.213654 270.809753,253.410461 
	C271.023438,249.358978 271.164032,246.219147 271.039764,243.089844 
	C270.813599,237.393112 270.430206,231.702621 270.112396,226.009537 
	C270.019348,223.304947 269.926270,220.600357 270.178467,217.214142 
	C269.920776,214.384109 274.372223,211.719574 269.853760,209.970978 
	C269.674103,207.883148 269.494446,205.795319 269.603821,202.973083 
	C269.620575,194.827057 269.348236,187.415421 269.075928,180.003784 
	C268.922333,176.458115 268.768738,172.912460 268.793121,168.515701 
	C267.515259,165.666031 272.880432,161.836838 267.176636,160.978317 
	C266.504974,159.902283 265.833282,158.826248 265.032257,157.115112 
	C263.911865,156.060760 262.920807,155.641495 261.929749,155.222229 
	C261.758728,155.201859 261.587708,155.181503 260.992279,154.772980 
	C259.947418,154.305557 259.326965,154.226303 258.706512,154.147064 
	C257.707611,154.101868 256.708710,154.056686 255.140015,153.662750 
	C254.042465,152.228317 253.514694,151.142654 252.986923,150.056976 
	C255.702103,150.023239 258.417297,149.989487 261.820801,150.300629 
	C268.921661,150.787292 275.334778,151.050171 281.746399,151.018433 
	C284.827148,151.003189 287.905090,150.431519 290.984314,150.111832 
	C291.436646,150.050339 291.888947,149.988846 292.785217,150.211639 
	C293.430511,150.746460 293.688660,150.903595 294.003662,150.967361 
	C293.039581,152.383286 292.075470,153.799194 291.053497,155.560730 
M156.751663,255.826431 
	C156.588684,255.880966 156.425690,255.935501 156.262695,255.990036 
	C156.426712,256.043060 156.590729,256.096100 156.751663,255.826431 
z"/>
<path fill="#7D1D1E" opacity="1.000000" stroke="none" 
	d="
M139.994629,313.641998 
	C140.795425,313.754181 141.596237,313.866333 143.161438,313.977478 
	C148.614899,313.923279 153.303955,313.870148 157.993011,313.817017 
	C159.060669,313.889740 160.128311,313.962433 162.053955,314.071625 
	C168.180954,314.141693 173.452499,314.270355 178.716888,314.130188 
	C179.793488,314.101532 180.843231,313.064880 181.905365,312.492859 
	C180.840073,311.750214 179.863190,310.587799 178.693359,310.341431 
	C174.731583,309.507080 170.701492,308.997162 166.802902,308.240845 
	C166.908310,308.118439 167.123917,307.877808 167.123917,307.877808 
	C171.391922,308.244629 175.709396,308.344818 179.901169,309.122498 
	C181.373322,309.395630 182.537018,311.331421 183.841553,312.507996 
	C182.377121,313.646210 180.959244,315.685150 179.440048,315.763641 
	C173.497009,316.070770 167.522064,315.706665 161.558685,315.689819 
	C154.732910,315.670502 147.906860,315.761627 141.080872,315.791992 
	C137.624023,315.807373 134.167023,315.794678 129.883514,315.794678 
	C131.152985,318.263580 131.995697,319.902496 132.790588,321.913391 
	C130.122391,320.002136 127.502029,317.718964 124.881676,315.435791 
	C125.034706,314.993347 125.187729,314.550903 125.340752,314.108459 
	C129.358337,314.108459 133.375931,314.108459 137.795502,314.006470 
	C138.498337,313.934937 138.799210,313.965393 139.521759,313.801697 
	C139.943436,313.607513 139.994629,313.641998 139.994629,313.641998 
z"/>
<path fill="#7D1D1E" opacity="1.000000" stroke="none" 
	d="
M137.788177,326.692261 
	C138.373535,326.771973 139.118408,327.098816 139.882263,327.786865 
	C139.250061,327.745178 138.598877,327.342285 137.788177,326.692261 
z"/>
<path fill="#7D1D1E" opacity="1.000000" stroke="none" 
	d="
M139.986023,328.374268 
	C140.437561,328.334259 141.013275,328.555878 141.611603,329.108154 
	C141.126205,329.171173 140.618210,328.903503 139.986023,328.374268 
z"/>
<path fill="#7D1D1E" opacity="1.000000" stroke="none" 
	d="
M136.096725,325.255188 
	C136.534058,325.257172 137.080551,325.525482 137.632660,326.118408 
	C137.160812,326.135834 136.683350,325.828674 136.096725,325.255188 
z"/>
<path fill="#7D1D1E" opacity="1.000000" stroke="none" 
	d="
M141.764404,329.649567 
	C141.985077,329.521484 142.344589,329.628510 142.797180,330.019440 
	C142.561264,330.163788 142.232239,330.024231 141.764404,329.649567 
z"/>
<path fill="#7D1D1E" opacity="1.000000" stroke="none" 
	d="
M132.810623,322.493011 
	C133.040695,322.386993 133.371582,322.531311 133.778732,322.949524 
	C133.540466,323.063385 133.225967,322.903351 132.810623,322.493011 
z"/>
<path fill="#7D1D1E" opacity="1.000000" stroke="none" 
	d="
M133.881683,323.411987 
	C134.103302,323.310608 134.422333,323.468719 134.845825,323.882050 
	C134.626541,323.981995 134.302826,323.826752 133.881683,323.411987 
z"/>
<path fill="#FAE4E2" opacity="1.000000" stroke="none" 
	d="
M294.001038,150.738953 
	C293.688660,150.903595 293.430511,150.746460 293.120850,150.292572 
	C293.174316,150.030472 293.336090,149.971725 293.746155,149.983383 
	C293.994446,150.053772 293.998383,150.510559 294.001038,150.738953 
z"/>
<path fill="#812124" opacity="1.000000" stroke="none" 
	d="
M143.938950,153.004395 
	C143.868164,153.758774 143.797363,154.513153 143.692963,156.059753 
	C143.705933,158.891998 143.752518,160.931992 143.799103,162.972000 
	C143.721832,164.559677 143.644562,166.147339 143.468903,168.502136 
	C143.304413,178.844330 143.238266,188.419418 143.172134,197.994492 
	C143.107605,198.751678 143.043076,199.508881 142.869659,200.631195 
	C142.503876,199.900757 142.026306,198.805771 142.023453,197.709534 
	C141.986298,183.425720 141.939743,169.140900 142.090271,154.858398 
	C142.122787,151.773590 142.925797,148.696899 143.416885,145.321014 
	C147.416580,145.263702 151.749222,143.526794 152.598267,149.803574 
	C151.831894,149.799301 151.381012,149.475311 150.930115,149.151337 
	C150.930115,149.151337 150.942978,149.059830 150.749939,148.756363 
	C148.998077,147.738602 147.439240,147.024307 145.880417,146.310028 
	C145.233261,148.541473 144.586105,150.772934 143.938950,153.004395 
z"/>
<path fill="#812124" opacity="1.000000" stroke="none" 
	d="
M142.972260,220.007339 
	C142.846832,223.902527 142.721420,227.797714 142.511948,232.509415 
	C142.341660,243.881836 142.255417,254.437744 142.169174,264.993652 
	C142.101257,265.454590 142.033356,265.915558 141.860214,266.711182 
	C141.291092,266.643433 140.418549,266.237457 140.422058,265.839172 
	C140.575516,248.371231 140.787216,230.903656 141.064056,213.437195 
	C141.086395,212.027649 141.620056,210.626205 142.280334,209.086548 
	C142.720474,211.338852 142.796417,213.725616 142.823608,216.920715 
	C142.840668,218.488464 142.906448,219.247910 142.972260,220.007339 
z"/>
<path fill="#812124" opacity="1.000000" stroke="none" 
	d="
M141.916153,288.990143 
	C141.706131,290.754608 141.496094,292.519043 141.236633,295.057068 
	C141.025833,296.906250 140.864471,297.981812 140.703125,299.057404 
	C140.783524,290.438232 140.863922,281.819092 141.313644,273.067841 
	C141.744598,276.320190 141.806213,279.704620 141.830399,283.947388 
	C141.834030,286.200531 141.875092,287.595337 141.916153,288.990143 
z"/>
<path fill="#FAE4E2" opacity="1.000000" stroke="none" 
	d="
M290.524597,150.022003 
	C287.905090,150.431519 284.827148,151.003189 281.746399,151.018433 
	C275.334778,151.050171 268.921661,150.787292 262.265320,150.390717 
	C271.369293,150.068008 280.717102,150.000092 290.524597,150.022003 
z"/>
<path fill="#FAE4E2" opacity="1.000000" stroke="none" 
	d="
M252.585678,149.955170 
	C253.514694,151.142654 254.042465,152.228317 254.776840,153.564865 
	C252.085800,153.687683 249.188156,153.559631 246.290512,153.431564 
	C246.209610,152.670425 246.128723,151.909286 246.047836,151.148148 
	C248.093369,150.716553 250.138901,150.284958 252.585678,149.955170 
z"/>
<path fill="#F8E3E1" opacity="1.000000" stroke="none" 
	d="
M270.016022,226.468658 
	C270.430206,231.702621 270.813599,237.393112 271.039764,243.089844 
	C271.164032,246.219147 271.023438,249.358978 270.914062,252.998718 
	C270.523773,244.644852 270.221710,235.786301 270.016022,226.468658 
z"/>
<path fill="#F8E8E5" opacity="1.000000" stroke="none" 
	d="
M140.723389,299.414215 
	C140.864471,297.981812 141.025833,296.906250 141.285706,295.433350 
	C141.895248,297.194855 142.923080,299.396881 142.747406,301.498230 
	C142.616135,303.068390 140.931671,304.508667 139.556885,306.012268 
	C139.697876,303.935516 140.220779,301.853271 140.723389,299.414215 
z"/>
<path fill="#F8E3E1" opacity="1.000000" stroke="none" 
	d="
M268.979492,180.463501 
	C269.348236,187.415421 269.620575,194.827057 269.679382,202.584518 
	C269.271606,195.594635 269.077332,188.258911 268.979492,180.463501 
z"/>
<path fill="#F8E3E1" opacity="1.000000" stroke="none" 
	d="
M269.703674,210.296234 
	C274.372223,211.719574 269.920776,214.384109 270.245789,216.767578 
	C269.829712,214.875595 269.691650,212.748535 269.703674,210.296234 
z"/>
<path fill="#F8E8E5" opacity="1.000000" stroke="none" 
	d="
M191.273941,191.514221 
	C189.588928,190.180756 187.773453,188.536118 185.950287,186.529083 
	C187.676208,187.845459 189.409836,189.524246 191.273941,191.514221 
z"/>
<path fill="#F8E8E5" opacity="1.000000" stroke="none" 
	d="
M169.143433,168.471375 
	C167.485443,167.117874 165.729706,165.449280 163.979523,163.413666 
	C165.671936,164.749863 167.358810,166.453064 169.143433,168.471375 
z"/>
<path fill="#F8E8E5" opacity="1.000000" stroke="none" 
	d="
M174.100830,173.592560 
	C172.519196,172.433960 170.832504,170.958847 169.179062,169.120697 
	C170.806793,170.263809 172.401260,171.769943 174.100830,173.592560 
z"/>
<path fill="#F8E3E1" opacity="1.000000" stroke="none" 
	d="
M267.167480,161.364594 
	C272.880432,161.836838 267.515259,165.666031 268.886658,168.095947 
	C268.254272,166.268478 267.706329,164.009659 267.167480,161.364594 
z"/>
<path fill="#F8E8E5" opacity="1.000000" stroke="none" 
	d="
M159.998138,158.637299 
	C158.740463,157.846390 157.399704,156.741135 156.097794,155.249619 
	C157.396118,156.016556 158.655579,157.169754 159.998138,158.637299 
z"/>
<path fill="#F8E8E5" opacity="1.000000" stroke="none" 
	d="
M197.110901,197.586487 
	C196.179962,197.079056 195.149597,196.261841 194.129822,195.070969 
	C195.097427,195.557114 196.054443,196.416916 197.110901,197.586487 
z"/>
<path fill="#FAE4E2" opacity="1.000000" stroke="none" 
	d="
M262.098633,155.476715 
	C262.920807,155.641495 263.911865,156.060760 264.910339,156.822418 
	C264.034332,156.686935 263.150909,156.209076 262.098633,155.476715 
z"/>
<path fill="#F8E8E5" opacity="1.000000" stroke="none" 
	d="
M156.056213,154.555145 
	C155.131851,154.043091 154.123077,153.219284 153.131577,152.022552 
	C154.089828,152.514221 155.030823,153.378815 156.056213,154.555145 
z"/>
<path fill="#F8E3E1" opacity="1.000000" stroke="none" 
	d="
M270.816711,263.210602 
	C271.133301,263.859985 271.320923,264.732758 271.264038,265.793823 
	C270.908936,265.132721 270.798340,264.283356 270.816711,263.210602 
z"/>
<path fill="#F8E8E5" opacity="1.000000" stroke="none" 
	d="
M150.963715,149.445404 
	C151.381012,149.475311 151.831894,149.799301 152.554077,150.203461 
	C152.825348,150.283630 152.826813,150.663040 152.777542,150.846283 
	C152.151291,150.599503 151.574310,150.169495 150.963715,149.445404 
z"/>
<path fill="#FAE4E2" opacity="1.000000" stroke="none" 
	d="
M258.921570,154.378967 
	C259.326965,154.226303 259.947418,154.305557 260.774963,154.633209 
	C260.366913,154.791367 259.751770,154.701111 258.921570,154.378967 
z"/>
<path fill="#F8E8E5" opacity="1.000000" stroke="none" 
	d="
M137.590454,307.851868 
	C137.671158,308.098846 137.486404,308.410065 137.020157,308.759338 
	C136.934097,308.503632 137.129532,308.209869 137.590454,307.851868 
z"/>
<path fill="#F8E8E5" opacity="1.000000" stroke="none" 
	d="
M161.927780,160.739090 
	C161.717697,160.806854 161.441559,160.625015 161.091400,160.199158 
	C161.298813,160.133255 161.580276,160.311356 161.927780,160.739090 
z"/>
<path fill="#F8E8E5" opacity="1.000000" stroke="none" 
	d="
M138.586426,306.776978 
	C138.684540,307.008850 138.517929,307.352264 138.065842,307.781860 
	C137.960815,307.541565 138.141266,307.215027 138.586426,306.776978 
z"/>
<path fill="#F8E8E5" opacity="1.000000" stroke="none" 
	d="
M162.907806,161.755203 
	C162.600861,161.946304 162.342682,161.763107 162.088623,161.234985 
	C162.299515,161.168030 162.587463,161.331650 162.907806,161.755203 
z"/>
<path fill="#F8E8E5" opacity="1.000000" stroke="none" 
	d="
M176.035828,175.674072 
	C175.805573,175.748352 175.507980,175.554260 175.138397,175.095459 
	C175.367096,175.022415 175.667770,175.214050 176.035828,175.674072 
z"/>
<path fill="#F8E8E5" opacity="1.000000" stroke="none" 
	d="
M177.000305,176.699097 
	C176.785629,176.771927 176.499542,176.585266 176.135254,176.147858 
	C176.347672,176.077942 176.638275,176.258774 177.000305,176.699097 
z"/>
<path fill="#F8E8E5" opacity="1.000000" stroke="none" 
	d="
M178.010513,177.706100 
	C177.794479,177.782257 177.508316,177.599533 177.130981,177.171967 
	C177.339996,177.100510 177.640182,177.273865 178.010513,177.706100 
z"/>
<path fill="#F8E8E5" opacity="1.000000" stroke="none" 
	d="
M179.979675,179.718628 
	C179.758255,179.796249 179.476776,179.614166 179.106918,179.190674 
	C179.318893,179.119156 179.619247,179.289047 179.979675,179.718628 
z"/>
<path fill="#F8E8E5" opacity="1.000000" stroke="none" 
	d="
M180.928772,180.750900 
	C180.716553,180.816284 180.447021,180.627640 180.099838,180.198578 
	C180.305283,180.137741 180.588364,180.317307 180.928772,180.750900 
z"/>
<path fill="#F8E8E5" opacity="1.000000" stroke="none" 
	d="
M181.906128,181.759216 
	C181.618103,181.940491 181.355057,181.759995 181.080536,181.242950 
	C181.282547,181.177734 181.569885,181.341415 181.906128,181.759216 
z"/>
<path fill="#F8E8E5" opacity="1.000000" stroke="none" 
	d="
M183.861877,183.790726 
	C183.573563,183.988220 183.313278,183.823837 183.050583,183.317017 
	C183.336685,183.091171 183.617264,183.242599 183.861877,183.790726 
z"/>
<path fill="#F8E8E5" opacity="1.000000" stroke="none" 
	d="
M184.829102,184.793518 
	C184.544540,184.982025 184.291550,184.814545 184.039886,184.313354 
	C184.340973,184.063782 184.614136,184.216385 184.829102,184.793518 
z"/>
<path fill="#7D1D1E" opacity="1.000000" stroke="none" 
	d="
M158.149200,245.951065 
	C158.102875,241.936462 158.056534,237.921860 158.009277,232.987976 
	C157.941696,223.732086 157.875031,215.395477 157.808365,207.058884 
	C158.192551,207.746689 158.902847,208.429459 158.913574,209.123032 
	C159.239273,230.186401 159.496140,251.250854 159.520721,272.647278 
	C159.180847,271.915436 159.084000,270.851471 158.992279,268.935364 
	C158.827118,264.083649 158.656815,260.084076 158.486511,256.084534 
	C158.530869,255.322281 158.575211,254.560043 158.615936,253.036331 
	C158.457947,250.166931 158.303574,248.059006 158.149200,245.951065 
z"/>
<path fill="#F8E8E5" opacity="1.000000" stroke="none" 
	d="
M157.676392,206.671219 
	C157.875031,215.395477 157.941696,223.732086 157.928619,232.531006 
	C157.569153,232.241486 157.092987,231.503326 157.039444,230.735687 
	C156.351288,220.869980 155.700256,211.001389 155.134460,201.128113 
	C155.098053,200.492523 155.837936,199.812454 156.586395,199.075653 
	C157.152191,201.426666 157.348312,203.855118 157.676392,206.671219 
z"/>
<path fill="#7D1D1E" opacity="1.000000" stroke="none" 
	d="
M161.021255,300.944244 
	C161.021255,300.944244 161.041855,300.445709 160.964294,299.891357 
	C160.623672,298.521423 160.360596,297.705780 160.097534,296.890167 
	C160.097534,296.890167 160.004822,296.960358 160.110168,296.494324 
	C159.837708,292.017975 159.459900,288.007690 159.082092,283.997406 
	C159.118332,283.245422 159.154556,282.493439 159.209198,281.042755 
	C159.320862,279.890808 159.414093,279.437561 159.507324,278.984314 
	C159.992920,279.746246 160.845825,280.480408 160.905853,281.274506 
	C161.376648,287.502991 161.695587,293.742981 161.992493,300.523254 
	C161.923645,301.067078 161.714493,301.263885 161.540436,301.185608 
	C161.366379,301.107300 161.021255,300.944244 161.021255,300.944244 
z"/>
<path fill="#7D1D1E" opacity="1.000000" stroke="none" 
	d="
M162.027435,300.967834 
	C163.762314,302.966614 165.393417,305.064667 167.074219,307.520264 
	C167.123917,307.877808 166.908310,308.118439 166.491333,308.163635 
	C165.075653,307.438751 164.076950,306.668671 163.078232,305.898560 
	C163.078232,305.898560 163.006241,305.975403 163.003662,305.606689 
	C162.572205,303.913300 162.143341,302.588593 161.714478,301.263885 
	C161.714493,301.263885 161.923645,301.067078 162.027435,300.967834 
z"/>
<path fill="#F8E8E5" opacity="1.000000" stroke="none" 
	d="
M286.734192,165.665649 
	C284.394958,163.818924 283.670868,161.731796 287.495850,159.981995 
	C287.538757,161.739487 287.203979,163.518677 286.734192,165.665649 
z"/>
<path fill="#F8E8E5" opacity="1.000000" stroke="none" 
	d="
M159.410614,278.654755 
	C159.414093,279.437561 159.320862,279.890808 159.116882,280.675415 
	C156.256607,280.175354 156.352066,278.821991 158.638794,277.065948 
	C159.093109,277.443176 159.203506,277.884186 159.410614,278.654755 
z"/>
<path fill="#F8E8E5" opacity="1.000000" stroke="none" 
	d="
M288.068329,159.713684 
	C287.936401,159.759308 288.007843,159.331558 288.090668,159.258331 
	C288.363617,159.335983 288.372559,159.496964 288.068329,159.713684 
z"/>
<path fill="#F8E8E5" opacity="1.000000" stroke="none" 
	d="
M286.129456,172.869507 
	C285.990204,172.795914 285.970825,172.620712 286.001465,172.186340 
	C286.305817,172.145264 286.371765,172.425522 286.129456,172.869507 
z"/>
<path fill="#F8E8E5" opacity="1.000000" stroke="none" 
	d="
M163.047363,306.266541 
	C164.076950,306.668671 165.075653,307.438751 166.385925,308.286072 
	C170.701492,308.997162 174.731583,309.507080 178.693359,310.341431 
	C179.863190,310.587799 180.840073,311.750214 181.905365,312.492859 
	C180.843231,313.064880 179.793488,314.101532 178.716888,314.130188 
	C173.452499,314.270355 168.180954,314.141693 162.451706,314.010559 
	C163.130875,313.056885 164.270294,312.200775 165.420074,311.336853 
	C164.633591,309.798187 163.825058,308.216370 163.047363,306.266541 
z"/>
<path fill="#F8E8E5" opacity="1.000000" stroke="none" 
	d="
M158.685486,284.082764 
	C159.459900,288.007690 159.837708,292.017975 160.165955,296.477966 
	C159.012787,296.869720 157.909195,296.811737 156.183121,296.721069 
	C156.914185,292.363007 157.601532,288.265594 158.685486,284.082764 
z"/>
<path fill="#F8E8E5" opacity="1.000000" stroke="none" 
	d="
M142.428131,264.671478 
	C142.255417,254.437744 142.341660,243.881836 142.639709,232.927795 
	C142.796738,243.136200 142.741913,253.742752 142.428131,264.671478 
z"/>
<path fill="#F8E8E5" opacity="1.000000" stroke="none" 
	d="
M143.429108,197.670914 
	C143.238266,188.419418 143.304413,178.844330 143.602142,168.877869 
	C143.784531,178.106781 143.735321,187.727051 143.429108,197.670914 
z"/>
<path fill="#F8E8E5" opacity="1.000000" stroke="none" 
	d="
M144.205536,152.889893 
	C144.586105,150.772934 145.233261,148.541473 145.880417,146.310028 
	C147.439240,147.024307 148.998077,147.738602 150.704193,148.762878 
	C148.127258,149.277084 145.359116,149.405655 144.205536,152.889893 
z"/>
<path fill="#F8E8E5" opacity="1.000000" stroke="none" 
	d="
M157.855804,246.175980 
	C158.303574,248.059006 158.457947,250.166931 158.493378,252.671753 
	C153.851944,251.363846 158.100403,248.590912 157.855804,246.175980 
z"/>
<path fill="#F8E8E5" opacity="1.000000" stroke="none" 
	d="
M157.673492,313.557861 
	C153.303955,313.870148 148.614899,313.923279 143.465576,313.898163 
	C147.788193,313.646149 152.571075,313.472412 157.673492,313.557861 
z"/>
<path fill="#F8E8E5" opacity="1.000000" stroke="none" 
	d="
M144.190765,162.914261 
	C143.752518,160.931992 143.705933,158.891998 143.785553,156.430237 
	C147.532349,157.958450 146.444641,160.369553 144.190765,162.914261 
z"/>
<path fill="#F8E8E5" opacity="1.000000" stroke="none" 
	d="
M158.296722,256.433716 
	C158.656815,260.084076 158.827118,264.083649 158.915558,268.540100 
	C158.591446,264.925629 158.349182,260.854279 158.296722,256.433716 
z"/>
<path fill="#F8E8E5" opacity="1.000000" stroke="none" 
	d="
M142.280380,288.929352 
	C141.875092,287.595337 141.834030,286.200531 141.907883,284.401154 
	C145.047806,285.260956 144.485199,286.983185 142.280380,288.929352 
z"/>
<path fill="#F8E8E5" opacity="1.000000" stroke="none" 
	d="
M161.540436,301.185608 
	C162.143341,302.588593 162.572205,303.913300 163.052002,305.585876 
	C162.387665,304.539154 161.672409,303.144592 160.989197,301.347137 
	C161.021255,300.944244 161.366379,301.107300 161.540436,301.185608 
z"/>
<path fill="#F8E8E5" opacity="1.000000" stroke="none" 
	d="
M143.223145,219.825531 
	C142.906448,219.247910 142.840668,218.488464 142.894775,217.363220 
	C143.167816,217.879501 143.320938,218.761612 143.223145,219.825531 
z"/>
<path fill="#F8E8E5" opacity="1.000000" stroke="none" 
	d="
M160.039825,297.226562 
	C160.360596,297.705780 160.623672,298.521423 160.856964,299.666138 
	C160.545486,299.184509 160.263794,298.373718 160.039825,297.226562 
z"/>
<path fill="#F8E8E5" opacity="1.000000" stroke="none" 
	d="
M156.753204,255.987793 
	C156.590729,256.096100 156.426712,256.043060 156.262695,255.990036 
	C156.425690,255.935501 156.588684,255.880966 156.753204,255.987793 
z"/>
<path fill="#F8E8E5" opacity="1.000000" stroke="none" 
	d="
M139.892151,313.416840 
	C139.994629,313.641998 139.943436,313.607513 139.943069,313.633606 
	C139.768631,313.406342 139.594543,313.153015 139.420456,312.899689 
	C139.543518,312.997009 139.666595,313.094360 139.892151,313.416840 
z"/>
</svg>